<svg xmlns="http://www.w3.org/2000/svg" xmlns:xlink="http://www.w3.org/1999/xlink" viewBox="0 0 156.73 61.78"><defs><style>.cls-1{fill:url(#linear-gradient);}.cls-2{fill:url(#linear-gradient-2);}.cls-3{fill:url(#radial-gradient);}.cls-4{fill:url(#linear-gradient-3);}.cls-5{fill:url(#linear-gradient-4);}.cls-6{fill:url(#radial-gradient-2);}.cls-7{fill:url(#linear-gradient-5);}.cls-8{fill:url(#linear-gradient-6);}.cls-9{fill:url(#linear-gradient-7);}.cls-10{fill:url(#linear-gradient-8);}.cls-11{fill:url(#linear-gradient-9);}.cls-12{fill:url(#linear-gradient-10);}.cls-13{fill:url(#linear-gradient-11);}</style><linearGradient id="linear-gradient" x1="11.87" y1="31.64" x2="40.69" y2="31.64" gradientUnits="userSpaceOnUse"><stop offset="0.17" stop-color="#c070af"/><stop offset="1" stop-color="#eb3c81"/></linearGradient><linearGradient id="linear-gradient-2" y1="31.64" x2="47.55" y2="31.64" gradientUnits="userSpaceOnUse"><stop offset="0.17" stop-color="#ff5a19"/><stop offset="1" stop-color="#fd182d"/></linearGradient><radialGradient id="radial-gradient" cx="38.59" cy="18.65" r="16.54" gradientUnits="userSpaceOnUse"><stop offset="0" stop-color="#fff"/><stop offset="1" stop-color="#ccc"/></radialGradient><linearGradient id="linear-gradient-3" x1="40.68" y1="46.8" x2="44.32" y2="17.17" gradientUnits="userSpaceOnUse"><stop offset="0" stop-color="#ff418a"/><stop offset="0.06" stop-color="#ff418a" stop-opacity="0.87"/><stop offset="0.16" stop-color="#ff428b" stop-opacity="0.64"/><stop offset="0.27" stop-color="#ff438c" stop-opacity="0.45"/><stop offset="0.38" stop-color="#ff438c" stop-opacity="0.29"/><stop offset="0.48" stop-color="#ff448d" stop-opacity="0.16"/><stop offset="0.58" stop-color="#ff448d" stop-opacity="0.07"/><stop offset="0.67" stop-color="#ff448d" stop-opacity="0.02"/><stop offset="0.75" stop-color="#ff448d" stop-opacity="0"/></linearGradient><linearGradient id="linear-gradient-4" x1="42.84" y1="63.41" x2="49.73" y2="7.3" gradientUnits="userSpaceOnUse"><stop offset="0" stop-color="#ff381b"/><stop offset="0.58" stop-color="#ff361c" stop-opacity="0"/></linearGradient><radialGradient id="radial-gradient-2" cx="111.85" cy="27.48" r="25.89" xlink:href="#radial-gradient"/><linearGradient id="linear-gradient-5" x1="78.53" y1="42.38" x2="156.73" y2="42.38" xlink:href="#linear-gradient-2"/><linearGradient id="linear-gradient-6" x1="78.53" y1="34.03" x2="145.53" y2="34.03" xlink:href="#linear-gradient"/><linearGradient id="linear-gradient-7" x1="78.53" y1="47.09" x2="84.45" y2="47.09" gradientUnits="userSpaceOnUse"><stop offset="0" stop-color="#fd182d"/><stop offset="0.83" stop-color="#ff5a19"/></linearGradient><linearGradient id="linear-gradient-8" x1="86.09" y1="45.33" x2="93.1" y2="45.33" xlink:href="#linear-gradient-7"/><linearGradient id="linear-gradient-9" x1="96.24" y1="42.48" x2="110.48" y2="42.48" xlink:href="#linear-gradient-7"/><linearGradient id="linear-gradient-10" x1="112.6" y1="38.82" x2="128.39" y2="38.82" xlink:href="#linear-gradient-7"/><linearGradient id="linear-gradient-11" x1="78.53" y1="33.44" x2="145.53" y2="33.44" gradientUnits="userSpaceOnUse"><stop offset="0" stop-color="#eb3c81"/><stop offset="0.83" stop-color="#c070af"/></linearGradient></defs><title>Asset 1</title><g id="Layer_2" data-name="Layer 2"><g id="Layer_1-2" data-name="Layer 1"><path class="cls-1" d="M30.14,44.77A13.13,13.13,0,1,1,37.69,20.9l.15.11,2.85-4.29-.24-.17a18.27,18.27,0,1,0-.05,30.22l-3.29-4A13.07,13.07,0,0,1,30.14,44.77Z"/><path class="cls-2" d="M30.14,1.5a30.14,30.14,0,0,0-.61,60.27l.37-5.14A25,25,0,1,1,45.05,11.58L47.55,7A30.06,30.06,0,0,0,30.14,1.5Z"/><path class="cls-3" d="M52.71,2.88,48.44,0,30.87,26a5.84,5.84,0,0,0-.73-.05,5.65,5.65,0,1,0,5,3Z"/><path class="cls-4" d="M48.41,31.64a18.26,18.26,0,0,1-8,15.13l-3.29-4a13.12,13.12,0,0,0,2.31-20.41A11.87,11.87,0,0,0,37.84,21l2.85-4.29a18.25,18.25,0,0,1,7.72,14.43Z"/><path class="cls-5" d="M60.28,31.64A30.14,30.14,0,0,1,30.14,61.78h-.61l.37-5.14h.24A25,25,0,0,0,45.05,11.58L47.55,7A30.12,30.12,0,0,1,60.28,31.64Z"/><path class="cls-6" d="M103.16,22.37a4.25,4.25,0,0,1,1,3,5.17,5.17,0,0,1-.93,3,6.3,6.3,0,0,1-2.77,2.13A11.47,11.47,0,0,1,96,31.3a18.78,18.78,0,0,1-4.25-.49,11.42,11.42,0,0,1-3.39-1.32l1.9-4.31a12.27,12.27,0,0,0,2.81,1.16,10.71,10.71,0,0,0,3,.44,4.61,4.61,0,0,0,1.76-.24.75.75,0,0,0,.53-.71c0-.37-.23-.64-.69-.83a15.85,15.85,0,0,0-2.27-.6A24.2,24.2,0,0,1,92,23.48a5.77,5.77,0,0,1-2.36-1.6,4.38,4.38,0,0,1-1-3,5.18,5.18,0,0,1,.93-3,6.16,6.16,0,0,1,2.77-2.13,11.48,11.48,0,0,1,4.48-.78,16.29,16.29,0,0,1,3.55.39,11.25,11.25,0,0,1,3.07,1.14l-1.78,4.29a10.94,10.94,0,0,0-4.89-1.31c-1.52,0-2.29.37-2.29,1.11,0,.35.23.61.68.79a15.19,15.19,0,0,0,2.23.56,22.33,22.33,0,0,1,3.39.87A5.72,5.72,0,0,1,103.16,22.37Zm16.81-2a7.19,7.19,0,0,1,0,7.35,6.92,6.92,0,0,1-2.84,2.53,9.64,9.64,0,0,1-8.22,0,7,7,0,0,1-2.85-2.53,7.07,7.07,0,0,1,0-7.35,6.92,6.92,0,0,1,2.85-2.52,9.83,9.83,0,0,1,8.22,0A6.83,6.83,0,0,1,120,20.35ZM115.24,24a2.87,2.87,0,0,0-.63-2,2.19,2.19,0,0,0-3.21,0,2.87,2.87,0,0,0-.62,2,2.92,2.92,0,0,0,.62,2,2.17,2.17,0,0,0,3.21,0A2.92,2.92,0,0,0,115.24,24Zm7.47,4.65v.81l5.69-2.24v-.37l0-14.58h-5.67Zm22.45-7.12-14.62,4.64a7,7,0,0,1-.33-2.17,6.73,6.73,0,0,1,1-3.67A6.85,6.85,0,0,1,134,17.83a8.62,8.62,0,0,1,4-.9,8.51,8.51,0,0,1,3.8.83,6.51,6.51,0,0,1,2.74,2.43A6.28,6.28,0,0,1,145.16,21.55Zm-4.92,1.07a2.26,2.26,0,0,0-.75-1.34,2.15,2.15,0,0,0-1.46-.49,2.19,2.19,0,0,0-1.45.48,2.15,2.15,0,0,0-.75,1.35Zm-49,9.87a10.45,10.45,0,0,0-4.24-.8H78.53v11l7.31-2.32H84.45V36.25H86.6a2.63,2.63,0,0,1,1.81.54,1.94,1.94,0,0,1,.6,1.52,2.06,2.06,0,0,1-.29,1.14l6.22-2A6,6,0,0,0,94,34.8,6.17,6.17,0,0,0,91.22,32.49Z"/><path class="cls-7" d="M142.53,36.89A8.3,8.3,0,0,0,137,35.27a13.55,13.55,0,0,0-3.32.42,9.58,9.58,0,0,0-2.84,1.14l1.8,3.74a5.28,5.28,0,0,1,1.63-.8,6.49,6.49,0,0,1,1.88-.28c1.54,0,2.4.53,2.58,1.6h-2.28a8.49,8.49,0,0,0-4.71,1,3.51,3.51,0,0,0-1.56,3.09,4,4,0,0,0,2.32,3.7,6.3,6.3,0,0,0,2.77.56c1.94,0,3.24-.68,3.89-2.06v1.81h5.26V41.87A6.18,6.18,0,0,0,142.53,36.89Zm-3.76,7.89a1.92,1.92,0,0,1-.71,1,1.87,1.87,0,0,1-1.07.32,1.45,1.45,0,0,1-1-.31,1,1,0,0,1-.37-.79c0-.77.58-1.16,1.73-1.16h1.41ZM152.29,37V35.52h-5.4V49.24h5.67V43.15c0-2,1-3,2.91-3a8.28,8.28,0,0,1,1.26.1v-5A5.57,5.57,0,0,0,152.29,37Zm-39,2a7.74,7.74,0,0,0-.67,2.85c0,.17,0,.33,0,.5a7.66,7.66,0,0,0,.89,3.76,6.18,6.18,0,0,0,2.41,2.5,6.65,6.65,0,0,0,3.32.86A4.78,4.78,0,0,0,123,48.11v1.13h5.39l0-10.64V35.76Zm8.9,1.37a3.49,3.49,0,0,1,0,4,2.15,2.15,0,0,1-3.21,0,2.9,2.9,0,0,1-.63-2,3.07,3.07,0,0,1,.47-1.78,1.56,1.56,0,0,1,.16-.2,2,2,0,0,1,1.6-.7,2.12,2.12,0,0,1,1.13.3A2.22,2.22,0,0,1,122.17,40.39Zm-11.94-.71-5.49,1.18c0,.08,0,.15.05.23h-1.12L97.4,42.45a3.5,3.5,0,0,0-1.16,2.78v0a4,4,0,0,0,.59,2.13,4.06,4.06,0,0,0,1.73,1.53,6.27,6.27,0,0,0,2.77.56c1.94,0,3.23-.68,3.88-2.06v1.81h5.27V41.87A8.67,8.67,0,0,0,110.23,39.68Zm-6.82,4.14h1.4v1a1.9,1.9,0,0,1-.7,1,1.93,1.93,0,0,1-1.08.32,1.47,1.47,0,0,1-1-.31,1,1,0,0,1-.36-.79,1,1,0,0,1,.61-1,2.32,2.32,0,0,1,.91-.19ZM93.1,45.93l-1.43-2.11.42-.23-6,1.29,1.48,2.19L89,49.24h6.32Zm-14.57.58v2.73h5.92v-4Z"/><path class="cls-8" d="M102.5,41.09a8.51,8.51,0,0,0-4.71,1,4.08,4.08,0,0,0-.39.31l6.27-1.36Zm-7.56-3.61-6.22,2a1.56,1.56,0,0,1-.31.37,2.63,2.63,0,0,1-1.81.54h-.76l-7.31,2.32v3.83l5.92-1.27v-.41h1.6l0,.05,6-1.29a5.84,5.84,0,0,0,2-2,5.45,5.45,0,0,0,.62-1.44A7.19,7.19,0,0,0,95,38.31,7.56,7.56,0,0,0,94.94,37.48Zm13.64-.59a5.79,5.79,0,0,0-1.19-.77,9.85,9.85,0,0,0-4.33-.85,12.81,12.81,0,0,0-1.39.08,11.84,11.84,0,0,0-1.93.34,9.64,9.64,0,0,0-2.85,1.14v0L98,39.12l.71,1.45a5.33,5.33,0,0,1,1.62-.8,6.61,6.61,0,0,1,1.89-.28c1.42,0,2.26.45,2.53,1.37l5.49-1.18A5.19,5.19,0,0,0,108.58,36.89Zm36.58-15.34-14.62,4.64a6.34,6.34,0,0,0,.7,1.49,5.6,5.6,0,0,0,.49.68,7.11,7.11,0,0,0,2.42,1.87,9.85,9.85,0,0,0,4.36.92q4,0,6-2.21l-3-3a5.54,5.54,0,0,1-1.33.77,4.46,4.46,0,0,1-1.52.23,3.44,3.44,0,0,1-1.57-.32l-.19-.1a2.26,2.26,0,0,1-1-1.19h9.53c0-.8.07-1.24.07-1.33V24A7.71,7.71,0,0,0,145.16,21.55Zm-22.45,7.93v1.76l0,5.21a4.79,4.79,0,0,0-3.48-1.18,6.56,6.56,0,0,0-3.32.87,6.13,6.13,0,0,0-2.41,2.48l-.21.4,15.12-3.26V27.24Z"/><polygon class="cls-9" points="78.53 46.51 84.45 45.23 84.45 47.72 78.53 48.95 78.53 46.51"/><path class="cls-10" d="M91.67,43.82l1.43,2.11-5.53,1.14-1.48-2.19,6-1.29Z"/><path class="cls-11" d="M110.23,39.68a8.67,8.67,0,0,1,.25,2.19v.44l-7.28,1.52-.91.19-6.05,1.25v0a3.5,3.5,0,0,1,1.16-2.78l6.27-1.36h1.12c0-.08,0-.15-.05-.23Z"/><path class="cls-12" d="M128.39,35.76V38.6L121.69,40l-2.89.6-6.2,1.28a7.74,7.74,0,0,1,.67-2.85Z"/><path class="cls-13" d="M94.94,37.48a7.56,7.56,0,0,1,0,.83,7.19,7.19,0,0,1-.23,1.84L78.53,45.32V42.68l7.31-2.32h.76a2.63,2.63,0,0,0,1.81-.54,1.56,1.56,0,0,0,.31-.37Zm6.73-2.13a11.84,11.84,0,0,0-1.93.34,9.64,9.64,0,0,0-2.85,1.14v0L98,39.12l9.4-3a9.85,9.85,0,0,0-4.33-.85A12.81,12.81,0,0,0,101.67,35.35Zm21-4.11,5.69-1.81V27.24l-5.69,2.24ZM145.53,24a7.71,7.71,0,0,0-.37-2.41l-14.62,4.64a6.34,6.34,0,0,0,.7,1.49,5.6,5.6,0,0,0,.49.68l5.39-1.72-.19-.1a2.26,2.26,0,0,1-1-1.19h5.24Z"/></g></g></svg>