<svg width="36" height="36" viewBox="0 0 36 36" fill="none" xmlns="http://www.w3.org/2000/svg">
<path fill-rule="evenodd" clip-rule="evenodd" d="M6.57689 9.3177C6.94095 9.03345 7.41568 8.93277 7.86381 9.0448L13.8638 10.5448C14.5316 10.7117 15 11.3117 15 12V18C15 18.4618 14.7872 18.898 14.4231 19.1823C14.059 19.4665 13.5843 19.5672 13.1362 19.4553L7.13619 17.9553C6.46845 17.7883 6 17.1883 6 16.5V10.5C6 10.0381 6.21281 9.60196 6.57689 9.3177ZM9 12.4212V15.3288L12 16.0788V13.1712L9 12.4212Z" fill="#FD1D2B"/>
<path d="M7.8638 22.5452C7.0601 22.3442 6.2457 22.8329 6.04478 23.6366C5.84385 24.4403 6.33249 25.2546 7.13619 25.4556L13.1362 26.9556C13.9399 27.1565 14.7543 26.6679 14.9552 25.8642C15.1561 25.0605 14.6675 24.246 13.8638 24.0452L7.8638 22.5452Z" fill="#FD1D2B"/>
<path d="M29.9552 16.1365C30.1562 16.9402 29.6675 17.7546 28.8638 17.9556L22.8638 19.4556C22.0601 19.6564 21.2457 19.1679 21.0449 18.3642C20.8439 17.5605 21.3326 16.746 22.1363 16.5451L28.1363 15.0451C28.94 14.8442 29.7543 15.3328 29.9552 16.1365Z" fill="#FD1D2B"/>
<path d="M28.8638 11.9556C29.6675 11.7546 30.1562 10.9403 29.9552 10.1366C29.7543 9.33287 28.94 8.84423 28.1363 9.04514L22.1363 10.5451C21.3326 10.7461 20.8439 11.5605 21.0449 12.3642C21.2457 13.1679 22.0601 13.6565 22.8638 13.4556L28.8638 11.9556Z" fill="#FD1D2B"/>
<path fill-rule="evenodd" clip-rule="evenodd" d="M1.5 7.032C1.5 4.01762 4.40582 1.85561 7.29306 2.72178L18 5.93387L28.707 2.72178C31.5942 1.85561 34.5 4.01762 34.5 7.032V26.2679C34.5 28.2551 33.1965 30.0071 31.293 30.5781L18.431 34.4367C18.1499 34.521 17.8501 34.521 17.569 34.4367L4.70694 30.5781C2.8035 30.0071 1.5 28.2551 1.5 26.2679V7.032ZM16.5 8.61596L6.43103 5.59527C5.46861 5.30654 4.5 6.02722 4.5 7.032V26.2679C4.5 26.9303 4.9345 27.5142 5.56897 27.7046L16.5 30.9839V8.61596ZM19.5 30.9839L30.431 27.7046C31.0655 27.5142 31.5 26.9303 31.5 26.2679V7.032C31.5 6.02722 30.5315 5.30654 29.569 5.59527L19.5 8.61596V30.9839Z" fill="#FD1D2B"/>
</svg>
