<svg width="36" height="36" viewBox="0 0 36 36" fill="none" xmlns="http://www.w3.org/2000/svg">
<path fill-rule="evenodd" clip-rule="evenodd" d="M31.5002 10.5C31.5002 15.4705 27.4707 19.5 22.5002 19.5C17.5296 19.5 13.5001 15.4705 13.5001 10.5C13.5001 5.52944 17.5296 1.5 22.5002 1.5C27.4707 1.5 31.5002 5.52944 31.5002 10.5ZM28.5002 10.5C28.5002 13.8137 25.8138 16.5 22.5002 16.5C19.1864 16.5 16.5002 13.8137 16.5002 10.5C16.5002 7.18629 19.1864 4.5 22.5002 4.5C25.8138 4.5 28.5002 7.18629 28.5002 10.5Z" fill="#FD1D2B"/>
<path d="M12.2985 4.61973C13.1104 4.45493 13.6349 3.66318 13.4701 2.85131C13.3053 2.03945 12.5136 1.51488 11.7017 1.67969C7.59303 2.5137 4.50009 6.14381 4.50009 10.4997C4.50009 14.8556 7.59303 18.4857 11.7017 19.3197C12.5136 19.4844 13.3053 18.9599 13.4701 18.1481C13.6349 17.3363 13.1104 16.5444 12.2985 16.3797C9.56043 15.8238 7.50009 13.4007 7.50009 10.4997C7.50009 7.59867 9.56043 5.17553 12.2985 4.61973Z" fill="#FD1D2B"/>
<path fill-rule="evenodd" clip-rule="evenodd" d="M14.547 23.3602C16.3962 21.9408 18.9736 21 22.5001 21C26.0266 21 28.6041 21.9408 30.4533 23.3604C32.2888 24.7692 33.2874 26.5575 33.8289 28.0629C34.3054 29.388 33.9715 30.6851 33.1723 31.6042C32.4004 32.492 31.2318 33 30.0001 33H15.0001C13.7684 33 12.5998 32.492 11.8279 31.6042C11.0286 30.6849 10.6947 29.3878 11.1714 28.0629C11.7129 26.5575 12.7115 24.7692 14.547 23.3602ZM16.3737 25.74C15.1104 26.7097 14.3978 27.9567 13.9943 29.0784C13.9101 29.3124 13.9564 29.4801 14.0918 29.6358C14.2546 29.823 14.575 30 15.0001 30H30.0001C30.4252 30 30.7456 29.823 30.9084 29.6358C31.0438 29.4801 31.09 29.3124 31.0059 29.0784C30.6025 27.9568 29.8899 26.7097 28.6266 25.74C27.3772 24.781 25.4685 24 22.5001 24C19.5318 24 17.623 24.781 16.3737 25.74Z" fill="#FD1D2B"/>
<path d="M4.87648 28.9153C5.18353 27.7329 5.71056 26.4897 6.58029 25.5606C7.40692 24.6775 8.61087 24 10.5001 24C11.3285 24 12.0001 23.3284 12.0001 22.5C12.0001 21.6716 11.3285 21 10.5001 21C7.76908 21 5.7759 22.0301 4.39015 23.5104C3.04752 24.9447 2.34691 26.7207 1.9728 28.1611C1.24801 30.952 3.62184 33 6.00004 33H7.15387C7.98231 33 8.65387 32.3285 8.65387 31.5C8.65387 30.6715 7.98231 30 7.15387 30H6.00004C5.57625 30 5.23876 29.8258 5.0469 29.6139C4.87312 29.4219 4.80399 29.1943 4.87648 28.9153Z" fill="#FD1D2B"/>
</svg>
