<svg width="32" height="32" viewBox="0 0 32 32" fill="none" xmlns="http://www.w3.org/2000/svg">
<path fill-rule="evenodd" clip-rule="evenodd" d="M5.895 1.57932C6.12049 1.41929 6.39016 1.33333 6.66667 1.33333H25.3333C25.6099 1.33333 25.8795 1.41929 26.1049 1.57932C27.1055 2.28937 28.2059 3.19877 29.0696 4.23499C29.9143 5.24817 30.6667 6.54351 30.6667 8C30.6667 9.86156 29.7339 11.6212 28 12.5878V24H29.3333C30.0697 24 30.6667 24.5969 30.6667 25.3333V29.3333C30.6667 30.0697 30.0697 30.6667 29.3333 30.6667H2.66667C1.93029 30.6667 1.33333 30.0697 1.33333 29.3333V25.3333C1.33333 24.5969 1.93029 24 2.66667 24H4V12.6927C2.19028 11.7157 1.33333 9.79748 1.33333 8C1.33333 6.54351 2.08579 5.24817 2.93036 4.23499C3.79413 3.19877 4.89448 2.28937 5.895 1.57932ZM6.66667 13.3333V24H10.6667V20C10.6667 18.7159 11.0932 17.3883 12.0035 16.3641C12.9355 15.3156 14.3048 14.6667 16 14.6667C17.6952 14.6667 19.0645 15.3156 19.9965 16.3641C20.9068 17.3883 21.3333 18.7159 21.3333 20V24H25.3333V13.3361C23.5015 13.4388 22.034 12.5467 21.1057 11.7642C20.9705 11.6502 20.8435 11.5359 20.7251 11.4236C20.6445 11.503 20.5592 11.5831 20.4692 11.6632C19.5275 12.5003 18.0571 13.3333 16 13.3333C13.9429 13.3333 12.4726 12.5003 11.5309 11.6632C11.4225 11.5669 11.3211 11.4706 11.2265 11.3755C11.104 11.4845 10.9726 11.5961 10.8329 11.7078C9.89569 12.4576 8.43737 13.3333 6.66667 13.3333ZM10.2693 8.52988C10.2698 8.52921 10.2697 8.52935 10.2693 8.52988V8.52988ZM10.0559 8.78251C10.056 8.78225 10.0559 8.78276 10.0559 8.78251C10.0847 8.60345 10.1246 8.38869 10.1709 8.15312C10.2637 7.68101 10.3912 7.0824 10.5297 6.43691C10.5537 6.32481 10.5781 6.21121 10.6028 6.09644C10.749 5.41617 10.904 4.69471 11.047 4H7.09988C6.3174 4.58263 5.55701 5.24868 4.97871 5.94245C4.29804 6.759 4 7.45649 4 8C4 9.18069 4.62444 10.1988 5.72369 10.5354C5.98833 10.6164 6.30053 10.6667 6.66667 10.6667C7.56263 10.6667 8.43764 10.2091 9.16707 9.6255C9.51816 9.34464 9.80167 9.06136 9.99629 8.84904C10.0173 8.82614 10.0372 8.80344 10.0559 8.78251ZM13.7681 4C13.5932 4.87347 13.3925 5.80695 13.2113 6.65045C13.1861 6.76764 13.1613 6.88311 13.137 6.99643C12.9977 7.64537 12.8751 8.22176 12.7874 8.66772C12.7604 8.80532 12.7374 8.92645 12.7188 9.03059C12.8501 9.20941 13.0433 9.4397 13.3025 9.67012C13.8608 10.1664 14.7237 10.6667 16 10.6667C17.2763 10.6667 18.1392 10.1664 18.6975 9.67012C18.9392 9.45527 19.1236 9.24053 19.2537 9.06753L18.2403 4H13.7681ZM20.9597 4L21.9163 8.7824C21.9493 8.82476 21.988 8.87292 22.032 8.92569C22.2175 9.14823 22.4876 9.44135 22.8245 9.72534C23.5228 10.314 24.352 10.7369 25.2329 10.6705C25.6113 10.6419 25.9413 10.5706 26.2263 10.4709C27.4016 10.0597 28 9.09058 28 8C28 7.45649 27.702 6.759 27.0213 5.94245C26.4429 5.24868 25.6825 4.58263 24.9001 4H20.9597ZM28 26.6667H4V28H28V26.6667ZM18.6667 24V20C18.6667 19.2841 18.4265 18.6117 18.0035 18.1359C17.6021 17.6844 16.9715 17.3333 16 17.3333C15.0285 17.3333 14.3979 17.6844 13.9965 18.1359C13.5735 18.6117 13.3333 19.2841 13.3333 20V24H18.6667Z" fill="#FD1D2B"/>
</svg>
