<svg width="137" height="49" viewBox="0 0 137 49" fill="none" xmlns="http://www.w3.org/2000/svg">
<g clip-path="url(#clip0)">
<path d="M136.959 9.84035C136.973 7.53786 136.932 5.22166 137 2.91917C137.055 1.41159 135.767 0.0410549 134.26 0.0136443C131.465 -6.10352e-05 128.684 0.0136443 125.889 -6.10352e-05C125.492 -6.10352e-05 125.095 -6.10352e-05 124.697 0.0958762C123.478 0.356277 122.547 1.52123 122.519 2.76841C122.492 5.55059 122.519 8.34647 122.505 11.1287C122.492 11.7317 122.533 12.3621 122.807 12.9103C123.273 13.8286 124.245 14.5139 125.3 14.5002C128.04 14.5002 130.78 14.4865 133.52 14.5002C133.986 14.5002 134.466 14.5276 134.931 14.3905C135.863 14.1575 136.603 13.3763 136.877 12.4718C137.11 11.622 136.932 10.7175 136.959 9.84035Z" fill="white"/>
<path d="M52.2106 3.35774C52.1969 2.64506 52.2791 1.91868 52.1147 1.21971C51.964 0.630379 51.3475 0.21922 50.7447 0.287747C49.3336 0.328862 47.9088 0.205515 46.4977 0.342568C45.9771 0.45221 45.5935 0.959307 45.5935 1.48011C45.5661 2.59024 45.5935 3.70037 45.5798 4.8105C45.5935 5.20795 45.525 5.67393 45.7853 6.01657C46.0319 6.42773 46.5114 6.6059 46.9772 6.59219C48.2787 6.59219 49.5802 6.6059 50.868 6.59219C51.4708 6.59219 52.0736 6.13992 52.1421 5.52318C52.2655 4.79679 52.1832 4.07041 52.2106 3.35774Z" fill="white"/>
<path d="M74.2541 5.87943C73.4458 4.20738 72.1306 2.79573 70.6099 1.75413C68.6097 0.356189 66.0341 -0.137202 63.6366 0.273957C61.1843 0.657706 59.0197 2.15158 57.4853 4.05662C56.1838 5.67385 55.4303 7.74335 55.4029 9.82656C55.4166 22.7233 55.4029 35.6062 55.4166 48.5029C57.5675 48.4892 59.7321 48.5029 61.883 48.5029C61.8967 45.1726 61.883 41.8422 61.8967 38.5118C62.7461 39.4986 63.938 40.2524 65.2669 40.2798C66.8561 40.3483 68.4864 40.1016 69.9386 39.4163C71.3497 38.7585 72.5142 37.6483 73.3636 36.3738C74.6514 34.4687 75.1309 32.1388 75.1172 29.8637C75.1035 23.2852 75.1172 16.7066 75.1172 10.1281C74.9939 8.67531 74.8569 7.20884 74.2541 5.87943ZM68.6371 30.1515C68.6371 31.1657 68.2535 32.2347 67.4178 32.8652C66.3903 33.6875 64.9107 33.8109 63.7188 33.2763C62.6091 32.7967 61.8693 31.6454 61.883 30.4393C61.883 23.71 61.883 16.9807 61.883 10.2514C61.9104 8.73013 63.1297 7.41442 64.6093 7.19514C66.1437 6.90733 67.8288 7.79817 68.3905 9.27835C68.6919 10.0595 68.6234 10.8956 68.6234 11.7042C68.6371 17.8579 68.6371 23.9979 68.6371 30.1515Z" fill="white"/>
<path d="M17.7552 18.0497C15.9057 15.7609 13.0424 14.3629 10.1106 14.1848C9.0694 14.1299 8.0008 13.7599 7.3021 12.9376C5.9595 11.4848 6.2198 8.96303 7.6994 7.70214C8.7817 6.85241 10.3572 6.825 11.5765 7.37321C12.5081 7.81178 13.015 8.79857 13.2342 9.75794C15.3851 9.74423 17.5223 9.75794 19.6732 9.75794C19.6595 7.89401 19.1663 6.00268 18.0429 4.4951C16.303 2.1789 13.5904 0.561672 10.686 0.356092C9.8366 0.205334 8.9735 0.342387 8.1241 0.438324C5.8088 0.808368 3.7127 2.15149 2.2605 3.988C-1.0001 7.98995 -0.7261 14.4863 3.0551 18.0634C4.7676 19.8588 7.2336 20.8455 9.6996 20.8592C10.5901 20.8592 11.5354 20.9963 12.2615 21.5445C12.9465 22.0653 13.2616 22.9562 13.2479 23.8059C13.2479 25.6835 13.2479 27.5611 13.2479 29.4251C13.3575 30.8504 12.7684 32.5225 11.3573 33.0981C10.2065 33.5092 8.8091 33.4955 7.7679 32.7829C6.9048 32.1524 6.4801 31.056 6.4801 30.0007C6.4801 28.2327 6.4801 26.4647 6.4801 24.6967C4.3155 24.6967 2.1509 24.683 0 24.6967C0.0137 26.6018 0 28.5205 0 30.4256C0.2466 33.9889 2.4934 37.2645 5.6033 38.964C7.4117 39.9645 9.5626 40.1974 11.5902 39.8685C13.9329 39.567 16.1797 38.3609 17.6182 36.4833C19.0567 34.7701 19.7143 32.4951 19.7143 30.2885C19.7143 28.1231 19.7143 25.9576 19.7143 23.7922C19.7143 21.7364 19.0841 19.6532 17.7552 18.0497Z" fill="white"/>
<path d="M97.8315 14.1573C97.8178 12.6635 97.8589 11.1833 97.8178 9.68941C97.763 7.74326 97.078 5.82452 95.8587 4.30323C94.4613 2.54895 92.5433 1.1373 90.3513 0.561677C88.4881 0.0956967 86.4879 0.150518 84.6521 0.712436C82.3368 1.3977 80.3777 3.09716 79.2406 5.20778C78.5008 6.61943 78.0898 8.22295 78.1172 9.82647V29.4251C78.1172 30.3981 78.0761 31.3849 78.2953 32.3443C78.7611 34.8661 80.3503 37.1549 82.5012 38.5254C84.6521 39.9233 87.351 40.266 89.8444 39.8411C91.8583 39.5122 93.7352 38.4706 95.1463 36.9904C96.8177 35.2498 97.7082 32.8377 97.763 30.4393C97.763 28.5479 97.7493 26.6566 97.7767 24.7516C95.6121 24.7927 93.4475 24.7653 91.2829 24.7653C91.2555 26.5058 91.2692 28.2601 91.2692 30.0007C91.2829 31.2616 90.5705 32.591 89.3512 33.0296C88.31 33.3996 87.0496 33.3996 86.0906 32.7829C85.1042 32.1661 84.4603 31.0286 84.4877 29.8636C84.4877 26.6566 84.4877 23.4633 84.4877 20.2562C88.9265 20.2699 93.3516 20.2562 97.7904 20.2562C97.8863 18.2278 97.8178 16.1857 97.8315 14.1573ZM84.4877 14.1299C84.5014 12.8416 84.4877 11.5533 84.4877 10.265C84.5014 8.96303 85.3645 7.75697 86.5427 7.24987C87.214 6.94835 87.9812 6.96206 88.6936 7.058C90.2006 7.40063 91.4336 8.83969 91.4062 10.4158C91.4062 11.6493 91.4062 12.8965 91.4062 14.1436C89.1046 14.1299 86.803 14.1162 84.4877 14.1299Z" fill="white"/>
<path d="M118.423 18.3099C116.861 16.2541 114.505 14.8425 111.97 14.3628C110.97 14.1435 109.888 14.2531 108.942 13.8146C107.956 13.376 107.203 12.444 106.983 11.3887C106.874 10.5527 106.86 9.66185 107.271 8.90805C107.668 8.04462 108.408 7.31824 109.353 7.12636C110.532 6.86596 111.943 7.04413 112.806 7.94868C113.299 8.44207 113.505 9.12734 113.724 9.77149C115.861 9.75778 117.984 9.77149 120.122 9.75778C120.122 8.2502 119.82 6.72891 119.08 5.4132C118.053 3.53557 116.327 2.09651 114.409 1.20567C112.258 0.20518 109.737 0.0544212 107.463 0.712276C105.106 1.42495 103.12 3.13812 101.873 5.23503C100.585 7.38676 100.27 10.0045 100.627 12.4577C100.901 14.3628 101.764 16.1582 103.038 17.5835C104.778 19.6119 107.394 20.8454 110.066 20.8591C111.052 20.8454 112.135 20.9961 112.874 21.7088C113.546 22.2981 113.724 23.2438 113.724 24.1072C113.71 26.0808 113.724 28.0544 113.71 30.0142C113.628 31.2066 113.094 32.5223 111.943 33.0431C110.765 33.5228 109.34 33.5091 108.257 32.8101C107.381 32.1797 106.901 31.0695 106.956 30.0142C106.97 28.2463 106.956 26.4783 106.956 24.7103C104.791 24.7103 102.64 24.7103 100.476 24.7103C100.476 25.9026 100.476 27.0813 100.476 28.2737C100.503 29.5208 100.353 30.7954 100.695 32.0152C101.27 34.6055 102.956 36.8806 105.106 38.3882C106.613 39.4572 108.463 40.0602 110.326 40.0054C112.888 40.0328 115.532 39.1694 117.341 37.3055C119.176 35.5786 120.108 33.0705 120.163 30.5762C120.176 28.3696 120.163 26.163 120.163 23.9565C120.176 21.9555 119.642 19.9134 118.423 18.3099Z" fill="white"/>
<path d="M41.1138 5.48189C39.9082 3.50832 38.0998 1.87739 35.9489 1.02766C33.9624 0.260161 31.7293 0.191635 29.7017 0.794669C27.5371 1.47993 25.6739 2.9464 24.3587 4.76921C23.1531 6.42755 22.5366 8.49706 22.6051 10.5529C22.6051 20.2288 22.6051 29.9048 22.6051 39.5807C24.756 39.5944 26.9069 39.5807 29.0578 39.5944C29.0578 29.9185 29.0578 20.2288 29.0578 10.5529C29.0441 9.01786 30.1538 7.56509 31.6334 7.19505C32.5376 7.04429 33.5514 7.08541 34.3186 7.66103C35.442 8.36 35.9489 9.68942 35.9352 10.9777C35.9489 20.5166 35.9352 30.0555 35.9489 39.5944C38.0861 39.5944 40.2096 39.5944 42.3468 39.5944C42.3468 29.7677 42.3468 19.941 42.3468 10.1143C42.3742 8.49706 41.9221 6.87983 41.1138 5.48189Z" fill="white"/>
<path d="M45.5798 10.7451C45.5798 20.3662 45.5798 29.9737 45.5798 39.5948C47.717 39.5948 49.8679 39.5948 52.0051 39.5948C52.0188 29.9737 52.0051 20.3662 52.0051 10.7451C49.8679 10.7451 47.717 10.7451 45.5798 10.7451Z" fill="white"/>
</g>
<defs>
<clipPath id="clip0">
<rect width="137" height="48.5031" fill="white"/>
</clipPath>
</defs>
</svg>
