<svg width="36" height="36" viewBox="0 0 36 36" fill="none" xmlns="http://www.w3.org/2000/svg">
<path d="M13.5 22.5C13.5 21.6716 12.8284 21 12 21C11.1716 21 10.5 21.6716 10.5 22.5V27C10.5 27.8285 11.1716 28.5 12 28.5C12.8284 28.5 13.5 27.8285 13.5 27V22.5Z" fill="#FD1D2B"/>
<path d="M18 21C18.8284 21 19.5 21.6716 19.5 22.5V27C19.5 27.8285 18.8284 28.5 18 28.5C17.1716 28.5 16.5 27.8285 16.5 27V22.5C16.5 21.6716 17.1716 21 18 21Z" fill="#FD1D2B"/>
<path d="M25.5 22.5C25.5 21.6716 24.8284 21 24 21C23.1716 21 22.5 21.6716 22.5 22.5V27C22.5 27.8285 23.1716 28.5 24 28.5C24.8284 28.5 25.5 27.8285 25.5 27V22.5Z" fill="#FD1D2B"/>
<path fill-rule="evenodd" clip-rule="evenodd" d="M21.6865 4.1511L29.2811 15.0003H33C33.4447 15.0003 33.8667 15.1977 34.1517 15.5393C34.4367 15.8807 34.5554 16.331 34.4758 16.7687L31.9237 30.8053C31.5346 32.945 29.6711 34.5003 27.4963 34.5003H8.50374C6.32895 34.5003 4.46536 32.945 4.07632 30.8053L1.52421 16.7687C1.44464 16.331 1.56339 15.8807 1.84839 15.5393C2.13337 15.1977 2.55522 15.0003 3.00001 15.0003H6.71902L14.3135 4.15112C16.1049 1.59189 19.8951 1.59188 21.6865 4.1511ZM16.7712 5.8715C17.3683 5.01842 18.6316 5.01842 19.2288 5.8715L25.6191 15.0003H10.381L16.7712 5.8715ZM7.02793 30.2687L4.79733 18.0003H31.2027L28.972 30.2687C28.8424 30.9819 28.2211 31.5003 27.4963 31.5003H8.50374C7.7788 31.5003 7.15761 30.9819 7.02793 30.2687Z" fill="#FD1D2B"/>
</svg>
