<svg width="528" height="258" viewBox="0 0 528 258" fill="none" xmlns="http://www.w3.org/2000/svg">
<rect width="528" height="258" rx="9" fill="#221D31"/>
<rect x="33" y="30" width="184" height="43" rx="4" fill="#302A42"/>
<path d="M59.36 104.302H61.79V105.94H59.162L58.784 109H57.146L57.524 105.94H54.482L54.104 109H52.466L52.844 105.94H50.414V104.302H53.042L53.456 101.098H51.026V99.46H53.654L54.032 96.4H55.67L55.292 99.46H58.316L58.694 96.4H60.332L59.954 99.46H62.366L62.384 101.098H59.756L59.36 104.302ZM57.722 104.302L58.118 101.098H55.094L54.68 104.302H57.722ZM81.7281 107.2V109H73.4301V107.578L78.7041 101.188H73.5381V99.388H81.5841V100.81L76.2921 107.2H81.7281ZM87.4742 99.28C88.8902 99.28 89.9702 99.622 90.7142 100.306C91.4702 100.978 91.8482 101.998 91.8482 103.366V109H89.7242V107.83C89.4482 108.25 89.0522 108.574 88.5362 108.802C88.0322 109.018 87.4202 109.126 86.7002 109.126C85.9802 109.126 85.3502 109.006 84.8102 108.766C84.2702 108.514 83.8502 108.172 83.5502 107.74C83.2622 107.296 83.1182 106.798 83.1182 106.246C83.1182 105.382 83.4362 104.692 84.0722 104.176C84.7202 103.648 85.7342 103.384 87.1142 103.384H89.5982V103.24C89.5982 102.568 89.3942 102.052 88.9862 101.692C88.5902 101.332 87.9962 101.152 87.2042 101.152C86.6642 101.152 86.1302 101.236 85.6022 101.404C85.0862 101.572 84.6482 101.806 84.2882 102.106L83.4062 100.468C83.9102 100.084 84.5162 99.79 85.2242 99.586C85.9322 99.382 86.6822 99.28 87.4742 99.28ZM87.1682 107.488C87.7322 107.488 88.2302 107.362 88.6622 107.11C89.1062 106.846 89.4182 106.474 89.5982 105.994V104.878H87.2762C85.9802 104.878 85.3322 105.304 85.3322 106.156C85.3322 106.564 85.4942 106.888 85.8182 107.128C86.1422 107.368 86.5922 107.488 87.1682 107.488ZM94.7358 95.644H96.9858V109H94.7358V95.644ZM103.611 99.28C105.027 99.28 106.107 99.622 106.851 100.306C107.607 100.978 107.985 101.998 107.985 103.366V109H105.861V107.83C105.585 108.25 105.189 108.574 104.673 108.802C104.169 109.018 103.557 109.126 102.837 109.126C102.117 109.126 101.487 109.006 100.947 108.766C100.407 108.514 99.9869 108.172 99.6869 107.74C99.3989 107.296 99.2549 106.798 99.2549 106.246C99.2549 105.382 99.5729 104.692 100.209 104.176C100.857 103.648 101.871 103.384 103.251 103.384H105.735V103.24C105.735 102.568 105.531 102.052 105.123 101.692C104.727 101.332 104.133 101.152 103.341 101.152C102.801 101.152 102.267 101.236 101.739 101.404C101.223 101.572 100.785 101.806 100.425 102.106L99.5429 100.468C100.047 100.084 100.653 99.79 101.361 99.586C102.069 99.382 102.819 99.28 103.611 99.28ZM103.305 107.488C103.869 107.488 104.367 107.362 104.799 107.11C105.243 106.846 105.555 106.474 105.735 105.994V104.878H103.413C102.117 104.878 101.469 105.304 101.469 106.156C101.469 106.564 101.631 106.888 101.955 107.128C102.279 107.368 102.729 107.488 103.305 107.488ZM116.326 99.28C117.538 99.28 118.51 99.634 119.242 100.342C119.974 101.05 120.34 102.1 120.34 103.492V109H118.09V103.78C118.09 102.94 117.892 102.31 117.496 101.89C117.1 101.458 116.536 101.242 115.804 101.242C114.976 101.242 114.322 101.494 113.842 101.998C113.362 102.49 113.122 103.204 113.122 104.14V109H110.872V99.388H113.014V100.63C113.386 100.186 113.854 99.85 114.418 99.622C114.982 99.394 115.618 99.28 116.326 99.28ZM132.697 95.644V109H130.537V107.758C130.165 108.214 129.703 108.556 129.151 108.784C128.611 109.012 128.011 109.126 127.351 109.126C126.427 109.126 125.593 108.922 124.849 108.514C124.117 108.106 123.541 107.53 123.121 106.786C122.701 106.03 122.491 105.166 122.491 104.194C122.491 103.222 122.701 102.364 123.121 101.62C123.541 100.876 124.117 100.3 124.849 99.892C125.593 99.484 126.427 99.28 127.351 99.28C127.987 99.28 128.569 99.388 129.097 99.604C129.625 99.82 130.075 100.144 130.447 100.576V95.644H132.697ZM127.621 107.2C128.161 107.2 128.647 107.08 129.079 106.84C129.511 106.588 129.853 106.234 130.105 105.778C130.357 105.322 130.483 104.794 130.483 104.194C130.483 103.594 130.357 103.066 130.105 102.61C129.853 102.154 129.511 101.806 129.079 101.566C128.647 101.314 128.161 101.188 127.621 101.188C127.081 101.188 126.595 101.314 126.163 101.566C125.731 101.806 125.389 102.154 125.137 102.61C124.885 103.066 124.759 103.594 124.759 104.194C124.759 104.794 124.885 105.322 125.137 105.778C125.389 106.234 125.731 106.588 126.163 106.84C126.595 107.08 127.081 107.2 127.621 107.2ZM139.96 109.126C138.988 109.126 138.112 108.916 137.332 108.496C136.552 108.076 135.94 107.494 135.496 106.75C135.064 105.994 134.848 105.142 134.848 104.194C134.848 103.246 135.064 102.4 135.496 101.656C135.94 100.912 136.552 100.33 137.332 99.91C138.112 99.49 138.988 99.28 139.96 99.28C140.944 99.28 141.826 99.49 142.606 99.91C143.386 100.33 143.992 100.912 144.424 101.656C144.868 102.4 145.09 103.246 145.09 104.194C145.09 105.142 144.868 105.994 144.424 106.75C143.992 107.494 143.386 108.076 142.606 108.496C141.826 108.916 140.944 109.126 139.96 109.126ZM139.96 107.2C140.788 107.2 141.472 106.924 142.012 106.372C142.552 105.82 142.822 105.094 142.822 104.194C142.822 103.294 142.552 102.568 142.012 102.016C141.472 101.464 140.788 101.188 139.96 101.188C139.132 101.188 138.448 101.464 137.908 102.016C137.38 102.568 137.116 103.294 137.116 104.194C137.116 105.094 137.38 105.82 137.908 106.372C138.448 106.924 139.132 107.2 139.96 107.2Z" fill="#89889C"/>
<path d="M59.36 52.302H61.79V53.94H59.162L58.784 57H57.146L57.524 53.94H54.482L54.104 57H52.466L52.844 53.94H50.414V52.302H53.042L53.456 49.098H51.026V47.46H53.654L54.032 44.4H55.67L55.292 47.46H58.316L58.694 44.4H60.332L59.954 47.46H62.366L62.384 49.098H59.756L59.36 52.302ZM57.722 52.302L58.118 49.098H55.094L54.68 52.302H57.722ZM86.3541 47.28C87.5661 47.28 88.5261 47.634 89.2341 48.342C89.9421 49.038 90.2961 50.088 90.2961 51.492V57H88.0461V51.78C88.0461 50.94 87.8601 50.31 87.4881 49.89C87.1161 49.458 86.5821 49.242 85.8861 49.242C85.1301 49.242 84.5241 49.494 84.0681 49.998C83.6121 50.49 83.3841 51.198 83.3841 52.122V57H81.1341V51.78C81.1341 50.94 80.9481 50.31 80.5761 49.89C80.2041 49.458 79.6701 49.242 78.9741 49.242C78.2061 49.242 77.5941 49.488 77.1381 49.98C76.6941 50.472 76.4721 51.186 76.4721 52.122V57H74.2221V47.388H76.3641V48.612C76.7241 48.18 77.1741 47.85 77.7141 47.622C78.2541 47.394 78.8541 47.28 79.5141 47.28C80.2341 47.28 80.8701 47.418 81.4221 47.694C81.9861 47.958 82.4301 48.354 82.7541 48.882C83.1501 48.378 83.6601 47.988 84.2841 47.712C84.9081 47.424 85.5981 47.28 86.3541 47.28ZM102.295 52.248C102.295 52.404 102.283 52.626 102.259 52.914H94.7172C94.8492 53.622 95.1912 54.186 95.7432 54.606C96.3072 55.014 97.0032 55.218 97.8312 55.218C98.8872 55.218 99.7572 54.87 100.441 54.174L101.647 55.56C101.215 56.076 100.669 56.466 100.009 56.73C99.3492 56.994 98.6052 57.126 97.7772 57.126C96.7212 57.126 95.7912 56.916 94.9872 56.496C94.1832 56.076 93.5592 55.494 93.1152 54.75C92.6832 53.994 92.4672 53.142 92.4672 52.194C92.4672 51.258 92.6772 50.418 93.0972 49.674C93.5292 48.918 94.1232 48.33 94.8792 47.91C95.6352 47.49 96.4872 47.28 97.4352 47.28C98.3712 47.28 99.2052 47.49 99.9372 47.91C100.681 48.318 101.257 48.9 101.665 49.656C102.085 50.4 102.295 51.264 102.295 52.248ZM97.4352 49.08C96.7152 49.08 96.1032 49.296 95.5992 49.728C95.1072 50.148 94.8072 50.712 94.6992 51.42H100.153C100.057 50.724 99.7632 50.16 99.2712 49.728C98.7792 49.296 98.1672 49.08 97.4352 49.08ZM107.426 57.126C106.646 57.126 105.884 57.024 105.14 56.82C104.396 56.616 103.802 56.358 103.358 56.046L104.222 54.336C104.654 54.624 105.17 54.858 105.77 55.038C106.382 55.206 106.982 55.29 107.57 55.29C108.914 55.29 109.586 54.936 109.586 54.228C109.586 53.892 109.412 53.658 109.064 53.526C108.728 53.394 108.182 53.268 107.426 53.148C106.634 53.028 105.986 52.89 105.482 52.734C104.99 52.578 104.558 52.308 104.186 51.924C103.826 51.528 103.646 50.982 103.646 50.286C103.646 49.374 104.024 48.648 104.78 48.108C105.548 47.556 106.58 47.28 107.876 47.28C108.536 47.28 109.196 47.358 109.856 47.514C110.516 47.658 111.056 47.856 111.476 48.108L110.612 49.818C109.796 49.338 108.878 49.098 107.858 49.098C107.198 49.098 106.694 49.2 106.346 49.404C106.01 49.596 105.842 49.854 105.842 50.178C105.842 50.538 106.022 50.796 106.382 50.952C106.754 51.096 107.324 51.234 108.092 51.366C108.86 51.486 109.49 51.624 109.982 51.78C110.474 51.936 110.894 52.2 111.242 52.572C111.602 52.944 111.782 53.472 111.782 54.156C111.782 55.056 111.392 55.776 110.612 56.316C109.832 56.856 108.77 57.126 107.426 57.126ZM119.174 47.28C120.386 47.28 121.358 47.634 122.09 48.342C122.822 49.05 123.188 50.1 123.188 51.492V57H120.938V51.78C120.938 50.94 120.74 50.31 120.344 49.89C119.948 49.458 119.384 49.242 118.652 49.242C117.824 49.242 117.17 49.494 116.69 49.998C116.21 50.49 115.97 51.204 115.97 52.14V57H113.72V43.644H115.97V48.504C116.342 48.108 116.798 47.808 117.338 47.604C117.89 47.388 118.502 47.28 119.174 47.28Z" fill="white"/>
<path d="M59.36 157.302H61.79V158.94H59.162L58.784 162H57.146L57.524 158.94H54.482L54.104 162H52.466L52.844 158.94H50.414V157.302H53.042L53.456 154.098H51.026V152.46H53.654L54.032 149.4H55.67L55.292 152.46H58.316L58.694 149.4H60.332L59.954 152.46H62.366L62.384 154.098H59.756L59.36 157.302ZM57.722 157.302L58.118 154.098H55.094L54.68 157.302H57.722ZM77.1921 162.126C76.4121 162.126 75.6501 162.024 74.9061 161.82C74.1621 161.616 73.5681 161.358 73.1241 161.046L73.9881 159.336C74.4201 159.624 74.9361 159.858 75.5361 160.038C76.1481 160.206 76.7481 160.29 77.3361 160.29C78.6801 160.29 79.3521 159.936 79.3521 159.228C79.3521 158.892 79.1781 158.658 78.8301 158.526C78.4941 158.394 77.9481 158.268 77.1921 158.148C76.4001 158.028 75.7521 157.89 75.2481 157.734C74.7561 157.578 74.3241 157.308 73.9521 156.924C73.5921 156.528 73.4121 155.982 73.4121 155.286C73.4121 154.374 73.7901 153.648 74.5461 153.108C75.3141 152.556 76.3461 152.28 77.6421 152.28C78.3021 152.28 78.9621 152.358 79.6221 152.514C80.2821 152.658 80.8221 152.856 81.2421 153.108L80.3781 154.818C79.5621 154.338 78.6441 154.098 77.6241 154.098C76.9641 154.098 76.4601 154.2 76.1121 154.404C75.7761 154.596 75.6081 154.854 75.6081 155.178C75.6081 155.538 75.7881 155.796 76.1481 155.952C76.5201 156.096 77.0901 156.234 77.8581 156.366C78.6261 156.486 79.2561 156.624 79.7481 156.78C80.2401 156.936 80.6601 157.2 81.0081 157.572C81.3681 157.944 81.5481 158.472 81.5481 159.156C81.5481 160.056 81.1581 160.776 80.3781 161.316C79.5981 161.856 78.5361 162.126 77.1921 162.126ZM87.8058 162.126C86.8338 162.126 85.9578 161.916 85.1778 161.496C84.3978 161.076 83.7858 160.494 83.3418 159.75C82.9098 158.994 82.6938 158.142 82.6938 157.194C82.6938 156.246 82.9098 155.4 83.3418 154.656C83.7858 153.912 84.3978 153.33 85.1778 152.91C85.9578 152.49 86.8338 152.28 87.8058 152.28C88.7898 152.28 89.6718 152.49 90.4518 152.91C91.2318 153.33 91.8378 153.912 92.2698 154.656C92.7138 155.4 92.9358 156.246 92.9358 157.194C92.9358 158.142 92.7138 158.994 92.2698 159.75C91.8378 160.494 91.2318 161.076 90.4518 161.496C89.6718 161.916 88.7898 162.126 87.8058 162.126ZM87.8058 160.2C88.6338 160.2 89.3178 159.924 89.8578 159.372C90.3978 158.82 90.6678 158.094 90.6678 157.194C90.6678 156.294 90.3978 155.568 89.8578 155.016C89.3178 154.464 88.6338 154.188 87.8058 154.188C86.9778 154.188 86.2938 154.464 85.7538 155.016C85.2258 155.568 84.9618 156.294 84.9618 157.194C84.9618 158.094 85.2258 158.82 85.7538 159.372C86.2938 159.924 86.9778 160.2 87.8058 160.2ZM95.0873 148.644H97.3373V162H95.0873V148.644ZM109.326 157.248C109.326 157.404 109.314 157.626 109.29 157.914H101.748C101.88 158.622 102.222 159.186 102.774 159.606C103.338 160.014 104.034 160.218 104.862 160.218C105.918 160.218 106.788 159.87 107.472 159.174L108.678 160.56C108.246 161.076 107.7 161.466 107.04 161.73C106.38 161.994 105.636 162.126 104.808 162.126C103.752 162.126 102.822 161.916 102.018 161.496C101.214 161.076 100.59 160.494 100.146 159.75C99.7145 158.994 99.4985 158.142 99.4985 157.194C99.4985 156.258 99.7085 155.418 100.128 154.674C100.56 153.918 101.154 153.33 101.91 152.91C102.666 152.49 103.518 152.28 104.466 152.28C105.402 152.28 106.236 152.49 106.968 152.91C107.712 153.318 108.288 153.9 108.696 154.656C109.116 155.4 109.326 156.264 109.326 157.248ZM104.466 154.08C103.746 154.08 103.134 154.296 102.63 154.728C102.138 155.148 101.838 155.712 101.73 156.42H107.184C107.088 155.724 106.794 155.16 106.302 154.728C105.81 154.296 105.198 154.08 104.466 154.08ZM116.816 152.28C117.752 152.28 118.586 152.484 119.318 152.892C120.062 153.3 120.644 153.876 121.064 154.62C121.484 155.364 121.694 156.222 121.694 157.194C121.694 158.166 121.484 159.03 121.064 159.786C120.644 160.53 120.062 161.106 119.318 161.514C118.586 161.922 117.752 162.126 116.816 162.126C116.156 162.126 115.55 162.012 114.998 161.784C114.458 161.556 114.002 161.214 113.63 160.758V162H111.488V148.644H113.738V153.558C114.122 153.138 114.572 152.82 115.088 152.604C115.616 152.388 116.192 152.28 116.816 152.28ZM116.564 160.2C117.392 160.2 118.07 159.924 118.598 159.372C119.138 158.82 119.408 158.094 119.408 157.194C119.408 156.294 119.138 155.568 118.598 155.016C118.07 154.464 117.392 154.188 116.564 154.188C116.024 154.188 115.538 154.314 115.106 154.566C114.674 154.806 114.332 155.154 114.08 155.61C113.828 156.066 113.702 156.594 113.702 157.194C113.702 157.794 113.828 158.322 114.08 158.778C114.332 159.234 114.674 159.588 115.106 159.84C115.538 160.08 116.024 160.2 116.564 160.2ZM128.148 162.126C127.176 162.126 126.3 161.916 125.52 161.496C124.74 161.076 124.128 160.494 123.684 159.75C123.252 158.994 123.036 158.142 123.036 157.194C123.036 156.246 123.252 155.4 123.684 154.656C124.128 153.912 124.74 153.33 125.52 152.91C126.3 152.49 127.176 152.28 128.148 152.28C129.132 152.28 130.014 152.49 130.794 152.91C131.574 153.33 132.18 153.912 132.612 154.656C133.056 155.4 133.278 156.246 133.278 157.194C133.278 158.142 133.056 158.994 132.612 159.75C132.18 160.494 131.574 161.076 130.794 161.496C130.014 161.916 129.132 162.126 128.148 162.126ZM128.148 160.2C128.976 160.2 129.66 159.924 130.2 159.372C130.74 158.82 131.01 158.094 131.01 157.194C131.01 156.294 130.74 155.568 130.2 155.016C129.66 154.464 128.976 154.188 128.148 154.188C127.32 154.188 126.636 154.464 126.096 155.016C125.568 155.568 125.304 156.294 125.304 157.194C125.304 158.094 125.568 158.82 126.096 159.372C126.636 159.924 127.32 160.2 128.148 160.2ZM141.233 162L138.767 158.67L136.283 162H133.799L137.543 157.122L133.961 152.388H136.463L138.821 155.538L141.179 152.388H143.609L140.009 157.086L143.771 162H141.233Z" fill="#89889C"/>
<path d="M59.36 209.302H61.79V210.94H59.162L58.784 214H57.146L57.524 210.94H54.482L54.104 214H52.466L52.844 210.94H50.414V209.302H53.042L53.456 206.098H51.026V204.46H53.654L54.032 201.4H55.67L55.292 204.46H58.316L58.694 201.4H60.332L59.954 204.46H62.366L62.384 206.098H59.756L59.36 209.302ZM57.722 209.302L58.118 206.098H55.094L54.68 209.302H57.722ZM77.1921 214.126C76.4121 214.126 75.6501 214.024 74.9061 213.82C74.1621 213.616 73.5681 213.358 73.1241 213.046L73.9881 211.336C74.4201 211.624 74.9361 211.858 75.5361 212.038C76.1481 212.206 76.7481 212.29 77.3361 212.29C78.6801 212.29 79.3521 211.936 79.3521 211.228C79.3521 210.892 79.1781 210.658 78.8301 210.526C78.4941 210.394 77.9481 210.268 77.1921 210.148C76.4001 210.028 75.7521 209.89 75.2481 209.734C74.7561 209.578 74.3241 209.308 73.9521 208.924C73.5921 208.528 73.4121 207.982 73.4121 207.286C73.4121 206.374 73.7901 205.648 74.5461 205.108C75.3141 204.556 76.3461 204.28 77.6421 204.28C78.3021 204.28 78.9621 204.358 79.6221 204.514C80.2821 204.658 80.8221 204.856 81.2421 205.108L80.3781 206.818C79.5621 206.338 78.6441 206.098 77.6241 206.098C76.9641 206.098 76.4601 206.2 76.1121 206.404C75.7761 206.596 75.6081 206.854 75.6081 207.178C75.6081 207.538 75.7881 207.796 76.1481 207.952C76.5201 208.096 77.0901 208.234 77.8581 208.366C78.6261 208.486 79.2561 208.624 79.7481 208.78C80.2401 208.936 80.6601 209.2 81.0081 209.572C81.3681 209.944 81.5481 210.472 81.5481 211.156C81.5481 212.056 81.1581 212.776 80.3781 213.316C79.5981 213.856 78.5361 214.126 77.1921 214.126ZM88.9398 204.28C90.1518 204.28 91.1238 204.634 91.8558 205.342C92.5878 206.05 92.9538 207.1 92.9538 208.492V214H90.7038V208.78C90.7038 207.94 90.5058 207.31 90.1098 206.89C89.7138 206.458 89.1498 206.242 88.4178 206.242C87.5898 206.242 86.9358 206.494 86.4558 206.998C85.9758 207.49 85.7358 208.204 85.7358 209.14V214H83.4858V204.388H85.6278V205.63C85.9998 205.186 86.4678 204.85 87.0318 204.622C87.5958 204.394 88.2318 204.28 88.9398 204.28ZM95.808 204.388H98.058V214H95.808V204.388ZM96.942 202.804C96.534 202.804 96.192 202.678 95.916 202.426C95.64 202.162 95.502 201.838 95.502 201.454C95.502 201.07 95.64 200.752 95.916 200.5C96.192 200.236 96.534 200.104 96.942 200.104C97.35 200.104 97.692 200.23 97.968 200.482C98.244 200.722 98.382 201.028 98.382 201.4C98.382 201.796 98.244 202.132 97.968 202.408C97.704 202.672 97.362 202.804 96.942 202.804ZM106.339 204.28C107.275 204.28 108.109 204.484 108.841 204.892C109.585 205.3 110.167 205.876 110.587 206.62C111.007 207.364 111.217 208.222 111.217 209.194C111.217 210.166 111.007 211.03 110.587 211.786C110.167 212.53 109.585 213.106 108.841 213.514C108.109 213.922 107.275 214.126 106.339 214.126C105.043 214.126 104.017 213.694 103.261 212.83V217.492H101.011V204.388H103.153V205.648C103.525 205.192 103.981 204.85 104.521 204.622C105.073 204.394 105.679 204.28 106.339 204.28ZM106.087 212.2C106.915 212.2 107.593 211.924 108.121 211.372C108.661 210.82 108.931 210.094 108.931 209.194C108.931 208.294 108.661 207.568 108.121 207.016C107.593 206.464 106.915 206.188 106.087 206.188C105.547 206.188 105.061 206.314 104.629 206.566C104.197 206.806 103.855 207.154 103.603 207.61C103.351 208.066 103.225 208.594 103.225 209.194C103.225 209.794 103.351 210.322 103.603 210.778C103.855 211.234 104.197 211.588 104.629 211.84C105.061 212.08 105.547 212.2 106.087 212.2ZM122.387 209.248C122.387 209.404 122.375 209.626 122.351 209.914H114.809C114.941 210.622 115.283 211.186 115.835 211.606C116.399 212.014 117.095 212.218 117.923 212.218C118.979 212.218 119.849 211.87 120.533 211.174L121.739 212.56C121.307 213.076 120.761 213.466 120.101 213.73C119.441 213.994 118.697 214.126 117.869 214.126C116.813 214.126 115.883 213.916 115.079 213.496C114.275 213.076 113.651 212.494 113.207 211.75C112.775 210.994 112.559 210.142 112.559 209.194C112.559 208.258 112.769 207.418 113.189 206.674C113.621 205.918 114.215 205.33 114.971 204.91C115.727 204.49 116.579 204.28 117.527 204.28C118.463 204.28 119.297 204.49 120.029 204.91C120.773 205.318 121.349 205.9 121.757 206.656C122.177 207.4 122.387 208.264 122.387 209.248ZM117.527 206.08C116.807 206.08 116.195 206.296 115.691 206.728C115.199 207.148 114.899 207.712 114.791 208.42H120.245C120.149 207.724 119.855 207.16 119.363 206.728C118.871 206.296 118.259 206.08 117.527 206.08ZM127.518 214.126C126.738 214.126 125.976 214.024 125.232 213.82C124.488 213.616 123.894 213.358 123.45 213.046L124.314 211.336C124.746 211.624 125.262 211.858 125.862 212.038C126.474 212.206 127.074 212.29 127.662 212.29C129.006 212.29 129.678 211.936 129.678 211.228C129.678 210.892 129.504 210.658 129.156 210.526C128.82 210.394 128.274 210.268 127.518 210.148C126.726 210.028 126.078 209.89 125.574 209.734C125.082 209.578 124.65 209.308 124.278 208.924C123.918 208.528 123.738 207.982 123.738 207.286C123.738 206.374 124.116 205.648 124.872 205.108C125.64 204.556 126.672 204.28 127.968 204.28C128.628 204.28 129.288 204.358 129.948 204.514C130.608 204.658 131.148 204.856 131.568 205.108L130.704 206.818C129.888 206.338 128.97 206.098 127.95 206.098C127.29 206.098 126.786 206.2 126.438 206.404C126.102 206.596 125.934 206.854 125.934 207.178C125.934 207.538 126.114 207.796 126.474 207.952C126.846 208.096 127.416 208.234 128.184 208.366C128.952 208.486 129.582 208.624 130.074 208.78C130.566 208.936 130.986 209.2 131.334 209.572C131.694 209.944 131.874 210.472 131.874 211.156C131.874 212.056 131.484 212.776 130.704 213.316C129.924 213.856 128.862 214.126 127.518 214.126Z" fill="#89889C"/>
<path d="M242 30C242 26.6863 244.686 24 248 24H528V234H248C244.686 234 242 231.314 242 228V30Z" fill="#272237"/>
<circle cx="290.5" cy="70.5" r="19.5" fill="white"/>
<path d="M290.499 61C295.746 61 300 65.2534 300 70.5C300 75.7461 295.746 80 290.5 80C285.254 80 281 75.7468 281 70.5C281 65.254 285.253 61.0005 290.499 61ZM290.579 65.75L288.533 65.7506C288.521 65.88 287.748 71.9901 284.828 72.3915C284.774 72.3995 284.725 72.3995 284.371 72.4194L284.098 74.4059C284.098 74.4059 284.422 74.412 284.559 74.4192C285.19 74.4534 287.139 74.3697 288.699 71.802C289.488 70.501 290.156 68.5737 290.579 65.75ZM294.019 65.7626H291.079L289.65 74.3389H292.592C295.367 74.3389 297.103 72.2081 297.461 70.0644C297.576 69.3598 297.53 68.6478 297.305 68.0327C297.027 67.1239 295.82 65.7626 294.019 65.7626ZM295.394 70.0502C294.85 72.8361 291.958 72.4035 291.958 72.4035L292.748 67.6748C292.748 67.6748 295.957 67.1588 295.394 70.0502Z" fill="#1A1627"/>
<rect x="325" y="58" width="84" height="11" rx="5.5" fill="white"/>
<rect x="325" y="76" width="110" height="8" rx="4" fill="#89889C"/>
<path d="M271 115C271 111.686 273.686 109 277 109H528V234H271V115Z" fill="#302A42"/>
<rect x="370" y="142" width="84" height="11" rx="5.5" fill="white"/>
<rect x="370" y="160" width="43" height="8" rx="4" fill="#89889C"/>
<rect x="303" y="195" width="29" height="8" rx="4" fill="#89889C"/>
<rect x="303" y="210" width="21" height="8" rx="4" fill="#5C9DFF"/>
<rect x="332" y="210" width="21" height="8" rx="4" fill="#5C9DFF"/>
<rect x="385" y="195" width="29" height="8" rx="4" fill="#89889C"/>
<rect x="385" y="210" width="21" height="8" rx="4" fill="#5C9DFF"/>
<rect x="414" y="210" width="21" height="8" rx="4" fill="#5C9DFF"/>
<rect x="424" y="160" width="60" height="8" rx="4" fill="#89889C"/>
<path d="M271 115C271 111.686 273.686 109 277 109H279V234H271V115Z" fill="white"/>
<rect x="303" y="130" width="49" height="49" rx="5" fill="#89889C"/>
</svg>
