<svg width="162" height="45" viewBox="0 0 162 45" fill="none" xmlns="http://www.w3.org/2000/svg">
<path d="M110.138 12.0623H116.539V13.3014C120.391 11.7292 124.134 10.9761 127.167 14.3877C128.894 13.6574 130.466 12.7036 132.171 12.3065C137.132 11.1313 140.585 14.1321 139.966 19.1913C139.348 24.2505 138.369 29.2891 137.552 34.3597H131.064C131.418 32.1006 131.749 29.9098 132.128 27.7168C132.525 25.2819 132.947 22.8448 133.346 20.4144C133.343 20.3767 133.35 20.3389 133.367 20.3049C133.611 18.4656 132.99 17.0713 131.751 16.7176C130.4 16.3411 128.718 17.0941 128.121 18.7531C127.523 20.4122 127.299 22.1761 126.98 23.9127C126.425 27.1692 125.939 30.4667 125.362 33.7253C125.306 33.8868 125.212 34.0329 125.089 34.1518C124.967 34.2707 124.817 34.3591 124.654 34.41C122.749 34.4761 120.823 34.4305 118.785 34.4305C119.184 31.9066 119.584 29.4489 119.981 26.9912C120.357 24.6224 120.779 22.2743 121.122 19.917C121.32 18.6322 120.745 17.3703 119.771 16.8842C118.796 16.3981 117.534 16.7062 116.56 17.6578C115.321 18.8764 115.255 20.492 114.988 22.0415C114.303 26.1491 113.66 30.2567 112.973 34.3985H106.508C107.726 26.9204 108.922 19.5473 110.138 12.0623ZM51.7717 32.1234C51.0871 36.3748 50.4208 40.4276 49.7339 44.5466H43.2462C45.017 33.6957 46.7673 22.9132 48.5381 12.0851H55.0259C54.9597 12.6374 54.8707 13.1463 54.8273 13.589C56.1555 13.0801 57.4402 12.3727 58.8117 12.0851C63.4624 11.0879 67.3144 13.5228 68.6243 18.1073C70.5047 24.6818 65.8517 32.5433 59.1449 34.038C56.443 34.6039 54.0081 34.0494 51.7717 32.1234ZM62.0887 22.5572C62.1115 20.047 61.1599 18.3949 59.5785 17.797C57.997 17.1991 56.1691 17.8632 54.8182 19.5016C54.1889 20.2469 53.7172 21.112 53.4317 22.0448C53.1461 22.9775 53.0526 23.9584 53.1569 24.9282C53.3121 26.5667 53.999 27.9382 55.6671 28.5133C57.2645 29.0678 58.6337 28.4699 59.8089 27.386C61.1725 26.1375 61.9911 24.4034 62.0887 22.5572ZM0 28.8898C1.4833 27.6507 2.92324 26.4549 4.36318 25.2386C5.00443 25.9711 5.55895 26.7219 6.22301 27.3426C7.82041 28.8715 9.6985 28.8921 11.6998 28.2075C13.6258 27.5434 14.8649 26.2586 15.2187 24.198C15.4469 22.8037 15.0429 21.6307 13.8244 20.8549C12.9618 20.3026 12.0307 19.8576 11.1225 19.3716C10.5702 19.084 9.99516 18.817 9.44063 18.5523C1.63848 14.7414 2.92324 6.19758 8.54837 2.25201C12.2909 -0.360885 16.1657 -0.0299946 20.0633 1.83212C20.9031 2.23147 21.679 2.78371 22.5735 3.31542C21.3116 4.88772 20.1386 6.3482 18.9862 7.76532C17.9456 7.30892 16.9712 6.77037 15.9306 6.46001C13.4729 5.70695 11.2594 6.72473 10.1298 9.02955C9.37674 10.579 9.70763 11.9733 11.1909 12.8382C12.6742 13.7031 14.2032 14.3649 15.6865 15.1613C18.4545 16.6469 20.4787 18.7486 20.9122 22.0073C21.5968 27.0117 19.0866 31.3498 14.4473 33.4173C8.94544 35.8225 3.32487 34.1156 0 28.8898ZM25.8642 12.0623H32.3747C31.5988 16.7998 30.8686 21.4961 30.0927 26.1674C29.7824 28.05 30.3209 28.7803 32.1967 28.9354C34.5426 29.134 35.6197 28.2508 35.9826 25.9688C36.7128 21.3615 37.4887 16.7564 38.2646 12.0623H44.7523C44.3096 14.8737 43.8669 17.6418 43.4014 20.4327C43.091 22.3587 42.7578 24.2847 42.4269 26.2107C41.6967 30.5283 38.8168 33.431 34.5221 34.1384C32.0849 34.5377 29.6728 34.5583 27.3247 33.682C24.4676 32.598 22.9638 29.919 23.4726 26.8839C24.2691 22.005 25.0449 17.0896 25.8642 12.0623ZM105.933 24.1752H92.0125C91.8368 26.4777 92.9436 28.7803 94.6049 29.312C97.3729 30.2248 98.8106 28.3604 100.162 26.3659C101.69 26.9432 103.197 27.5069 104.7 28.0706C102.841 32.0138 97.2839 35.932 91.7478 34.095C87.8502 32.8103 85.9903 29.7775 85.6138 25.8342C85.0205 19.7458 89.5457 13.5684 95.4583 12.2403C100.595 11.0993 105.113 14.0659 105.887 19.3145C106.108 20.8526 105.933 22.4911 105.933 24.1752ZM92.6013 20.1885H100.618C99.9539 17.6783 98.6463 16.357 96.9667 16.3365C95.1274 16.3137 93.3338 17.886 92.6013 20.1885ZM156.087 26.3659C157.613 26.9432 159.096 27.5069 160.582 28.05C157.946 33.4515 150.197 36.8631 144.948 32.6323C141.936 30.1974 141.03 26.8748 141.628 23.2008C142.447 17.9955 145.325 14.2325 150.395 12.505C156.219 10.5128 161.577 14.2097 161.954 20.3665C162.043 21.6056 161.976 22.8448 161.976 24.1752H147.915C147.673 26.3454 148.846 28.6251 150.484 29.312C152.255 30.0856 153.784 29.312 156.087 26.3659ZM156.397 20.2547C156.285 18.2009 154.669 16.3753 152.919 16.3137C151.016 16.2475 148.78 18.2625 148.583 20.2547H156.397ZM86.4467 12.0395C85.8717 13.9883 85.3399 15.782 84.7854 17.6646C84.5475 17.6325 84.3114 17.5884 84.078 17.5323C80.9996 16.5784 78.3433 18.1507 77.766 21.3615C77.0586 25.2819 76.4607 29.2001 75.8172 33.1206C75.751 33.5177 75.662 33.917 75.589 34.3597H69.1309C70.3495 26.8976 71.5453 19.5016 72.7616 12.0623H79.1831C79.1626 12.5712 79.1169 13.0596 79.0736 13.6346C81.3099 11.9505 83.7676 11.7292 86.4467 12.0395Z" fill="white"/>
</svg>
