<svg width="78" height="78" viewBox="0 0 78 78" fill="none" xmlns="http://www.w3.org/2000/svg">
<path d="M38.9979 0C60.5352 0 78 17.4611 78 39C78 60.5368 60.5367 78 39 78C17.4622 78 0 60.5394 0 39C0 17.4637 17.4607 0.002081 38.9979 0ZM39.3248 19.5L30.9247 19.5026C30.8749 20.0335 27.7034 45.1173 15.713 46.7651C15.4932 46.7978 15.2901 46.7978 13.8402 46.8798L12.7174 55.0347C12.7174 55.0347 14.0474 55.0596 14.6091 55.0892C17.2017 55.2299 25.204 54.8863 31.6051 44.3451C34.8457 39.0042 37.588 31.0922 39.3248 19.5ZM53.4461 19.5519H41.3761L35.5115 54.7597H47.5873C58.9809 54.7597 66.1065 46.0121 67.5747 37.2116C68.0495 34.3192 67.86 31.3963 66.9356 28.8709C65.7945 25.1404 60.8386 19.5519 53.4461 19.5519ZM59.0903 37.1534C56.8589 48.5904 44.9873 46.8144 44.9873 46.8144L48.23 27.4016C48.23 27.4016 61.4039 25.2836 59.0903 37.1534Z" fill="#1A1627"/>
</svg>
