<svg width="92" height="92" viewBox="0 0 92 92" fill="none" xmlns="http://www.w3.org/2000/svg">
<path d="M77.1427 0.318531C77.1098 0.384441 77.1977 0.560202 77.3624 0.703008C77.6041 0.933695 77.648 1.06552 77.648 1.55984C77.648 1.96629 77.692 2.17501 77.8018 2.20796C78.0655 2.30683 78.1973 2.04319 78.1973 1.38408C78.1973 1.03256 78.2412 0.746948 78.2962 0.746948C78.461 0.746948 78.7575 0.406411 78.6916 0.29656C78.5928 0.153754 77.2416 0.175725 77.1427 0.318531ZM79.153 0.27459C79.0432 0.384441 79.0651 2.15304 79.175 2.21895C79.3398 2.31781 79.6144 2.17501 79.6803 1.94432C79.7792 1.64772 79.9439 1.68068 80.0648 2.02122C80.1746 2.29584 80.1966 2.29584 80.4273 2.14205C80.5591 2.05417 80.6909 1.8894 80.7019 1.77955C80.7788 1.40605 80.9326 1.36211 80.9985 1.69166C81.1193 2.24092 81.1523 2.28486 81.3281 2.21895C81.4599 2.16402 81.4928 1.95531 81.4928 1.23029C81.4928 0.329516 81.4928 0.307545 81.1962 0.241635C80.8886 0.16474 80.8337 0.20868 80.4822 0.856799C80.2735 1.23029 80.0648 1.20832 80.0648 0.812859C80.0648 0.384441 79.4166 -3.65674e-05 79.153 0.27459ZM10.5841 1.31817C10.5512 1.39507 10.5402 5.95387 10.5512 11.4574L10.5841 21.4538L43.5394 21.5087C61.6648 21.5417 76.5605 21.5417 76.6374 21.5197C76.7473 21.4978 76.7692 19.4106 76.7473 11.3585L76.7143 1.24128L43.6712 1.20832C17.296 1.18635 10.6171 1.20832 10.5841 1.31817ZM53.9752 25.0679C53.9532 25.1997 53.9093 26.7376 53.8763 28.5062C53.8324 31.1976 53.8544 31.7139 53.9862 31.7688C54.0741 31.8018 56.304 31.8347 58.9514 31.8347C61.5988 31.8457 63.8288 31.8896 63.9057 31.9446C64.0925 32.0544 63.9936 32.2192 63.3125 32.9552C63.0049 33.2738 62.247 34.1086 61.6098 34.8007C60.9837 35.4927 60.4125 36.1189 60.3465 36.1848C58.2923 38.3928 56.6446 40.0735 50.8115 45.9176C46.9667 49.7733 43.7591 52.9261 43.6602 52.9261C43.5723 52.9261 43.4845 52.8821 43.4625 52.8272C43.4515 52.7723 39.6177 48.8726 34.971 44.1709C30.3133 39.4693 25.9193 35.0094 25.1943 34.2514C24.4693 33.4935 23.7662 32.7794 23.6454 32.6476C23.5136 32.5268 23.3708 32.3071 23.3268 32.1643L23.2499 31.9116L24.2715 31.9775C24.8428 32.0215 27.0837 32.0544 29.2478 32.0544C32.3675 32.0654 33.2134 32.0324 33.2903 31.9226C33.3342 31.8457 33.3672 30.2748 33.3452 28.4293L33.3233 25.0789L30.9065 25.013C29.5773 24.969 24.5242 24.9361 19.6798 24.9251L10.8588 24.9141L10.8478 26.9683C10.8478 28.1108 10.8258 29.2312 10.8148 29.4729C10.7929 29.7146 10.7709 33.9658 10.7599 38.9091C10.7379 46.1702 10.7709 47.9278 10.8807 47.9938C11.1224 48.1475 17.4938 48.1146 17.6475 47.9608C17.7464 47.8619 17.7794 46.4778 17.7794 42.4353C17.7794 39.4584 17.8123 37.0087 17.8453 36.9647C17.8892 36.9318 18.2957 37.3053 18.768 37.7996C19.2404 38.2939 21.4484 40.5349 23.6784 42.7868C25.8973 45.0278 30.1815 49.3449 33.1914 52.3768C36.1904 55.4087 38.651 57.9572 38.651 58.0451C38.651 58.2318 39.431 57.4299 29.7641 67.2066C25.381 71.6446 20.9321 76.1595 19.8775 77.236C18.8229 78.3016 17.9112 79.1804 17.8672 79.1804C17.8233 79.1804 17.7684 76.8406 17.7574 73.9844L17.7244 68.7995L14.3081 68.7665L10.8917 68.7446L10.8258 69.92C10.7819 70.5791 10.694 75.6432 10.6171 81.1907C10.5072 89.9348 10.5072 91.2969 10.65 91.3848C10.7379 91.4397 15.4286 91.4727 22.0635 91.4507L33.3233 91.4287L33.3562 88.0343C33.3782 85.3869 33.3452 84.618 33.2464 84.5411C33.1695 84.4972 30.8406 84.4532 28.0834 84.4532C24.1287 84.4532 23.0522 84.4203 23.0522 84.3104C23.0522 84.1566 24.4473 82.7395 35.4653 71.5897C39.7276 67.2835 43.3197 63.6475 43.4515 63.5047C43.5833 63.3619 43.7591 63.252 43.847 63.252C43.9348 63.252 44.539 63.8123 45.1981 64.5043C46.5603 65.9324 64.0046 83.5524 64.5538 84.0468C65.2898 84.7278 65.4656 84.7059 59.5007 84.6619L54.0851 84.618L54.0191 87.9684C53.9532 90.6268 53.9752 91.3518 54.0851 91.4727C54.1949 91.5935 55.5131 91.6375 60.9068 91.7143C64.5868 91.7693 69.596 91.8572 72.0347 91.9231C74.4844 91.978 76.5166 92 76.5605 91.956C76.6704 91.8242 76.6814 85.4638 76.5605 81.2126C76.5056 79.1584 76.4617 75.5224 76.4507 73.1386C76.4397 70.7548 76.3958 68.7336 76.3518 68.6677C76.2859 68.5578 75.5169 68.5468 72.8586 68.6127L69.4642 68.6896V73.7098C69.4642 76.4671 69.4312 78.7629 69.3763 78.8069C69.3323 78.8508 68.2009 77.7853 66.8607 76.4231C65.5205 75.072 60.9617 70.4582 56.7325 66.185C52.4922 61.9009 48.988 58.3197 48.944 58.2318C48.8232 58.0341 48.9111 57.9462 54.5464 52.2669C60.8628 45.8956 62.7523 43.9732 66.1686 40.5019C67.8603 38.7883 69.2884 37.3822 69.3543 37.3822C69.4312 37.3822 69.4861 39.2167 69.5191 42.8747L69.574 48.3672H76.3848L76.4726 36.9428C76.5276 29.5498 76.5276 25.4414 76.4507 25.2876C76.3518 25.0569 76.2859 25.0459 72.9025 24.98C71.0131 24.9471 65.9929 24.9031 61.7417 24.8812L54.0301 24.8372L53.9752 25.0679Z" fill="black"/>
</svg>
