<svg width="93" height="72" viewBox="0 0 93 72" fill="none" xmlns="http://www.w3.org/2000/svg">
<mask id="mask0" mask-type="alpha" maskUnits="userSpaceOnUse" x="0" y="0" width="93" height="72">
<path d="M6.10352e-05 0.259949H92.9669V71.9369H6.10352e-05V0.259949Z" fill="white"/>
</mask>
<g mask="url(#mask0)">
<path fill-rule="evenodd" clip-rule="evenodd" d="M81.6256 49.3152C81.6256 53.008 79.3019 58.4298 72.5134 61.8536C65.8135 65.2332 56.3578 67.1408 46.4762 67.1641C36.5972 67.185 27.1545 65.3233 20.4823 61.9604C13.7239 58.565 11.3608 53.1387 11.3608 49.3152V44.4953C11.3608 38.4076 21.1225 34.9843 21.1225 34.9843L17.4602 40.0597L35.9908 33.3L29.4925 38.3231L48.946 33.0206L43 37.7463L62.6616 33.0206L56.8689 37.9394C56.8689 37.9394 71.0241 35.7009 73.4144 35.7009C81.3067 35.7009 81.6256 44.4953 81.6256 44.4953V49.3152ZM88.6806 39.4111C88.6801 39.4106 88.6796 39.4101 88.6791 39.4096C86.4494 17.0017 68.4105 0.259521 46.4933 0.259521C24.5575 0.259521 6.5225 17.0017 4.29309 39.4091C4.29257 39.4099 4.29231 39.4101 4.29153 39.4106C1.87483 39.7072 6.10352e-05 41.7853 6.10352e-05 44.3157C6.10352e-05 46.7645 1.75566 48.7932 4.05942 49.1904C4.06046 49.1907 4.06123 49.1917 4.06123 49.1928C4.5094 79.714 88.4596 79.3212 88.9114 49.192C88.9114 49.1907 88.9122 49.1899 88.9132 49.1896C91.2141 48.7901 92.9669 46.7629 92.9669 44.3157C92.9669 41.7871 91.095 39.7101 88.6806 39.4111Z" fill="white"/>
</g>
<path fill-rule="evenodd" clip-rule="evenodd" d="M55.6072 58.1162C55.5196 58.1791 55.3829 58.2573 55.1927 58.3358V56.6078C55.4746 56.7043 55.6375 56.8119 55.724 56.8896C55.8927 57.0404 55.9556 57.214 55.9556 57.5303C55.9556 57.6738 55.9196 57.8911 55.6072 58.1162ZM54.4557 58.5472C54.2094 58.5963 53.9177 58.6342 53.577 58.6574V56.3827C53.9171 56.3879 54.2094 56.4095 54.4557 56.4425V58.5472ZM52.84 58.6792C52.5695 58.6784 52.2815 58.6709 51.9613 58.6498V56.4669C52.2786 56.4339 52.5719 56.4108 52.84 56.3978V58.6792ZM51.2243 58.5854C50.9484 58.5555 50.6544 58.5173 50.3453 58.4718V56.692C50.6492 56.6414 50.9432 56.5959 51.2243 56.5569V58.5854ZM49.6083 58.3519C49.3293 58.3031 49.0337 58.2451 48.7296 58.1827V56.9907C49.0286 56.9309 49.3218 56.8745 49.6083 56.8218V58.3519ZM47.9926 58.0226C47.4084 57.8906 46.7945 57.7422 46.1222 57.5594C46.7556 57.4113 47.3818 57.2719 47.9926 57.1425V58.0226ZM57.1716 55.258C56.1038 54.3038 54.2446 53.9997 51.4911 54.3197C47.0193 54.8432 39.1335 57.0827 36.2824 57.9197C35.7018 58.0902 35.3721 58.7026 35.5469 59.2838C35.7197 59.8574 36.3199 60.1844 36.8932 60.0168C37.9957 59.6942 39.8744 59.1556 42.0061 58.5911C46.5821 60.1104 50.2192 60.8719 52.8869 60.8719C54.6363 60.8719 55.9699 60.545 56.8784 59.8892C57.6869 59.3056 58.1325 58.4681 58.1325 57.5303C58.1325 56.5928 57.8094 55.8275 57.1716 55.258Z" fill="white"/>
<path fill-rule="evenodd" clip-rule="evenodd" d="M74.9618 43.462L57.4972 48.6439C56.8454 48.837 56.4732 49.524 56.6662 50.178C56.8245 50.7148 57.3226 51.0774 57.8804 51.062L74.6053 50.5973C75.0053 50.5861 75.3206 50.2513 75.3089 49.85C75.297 49.4479 74.9618 49.1318 74.5613 49.1451L62.0856 49.5602L75.5789 45.5568C76.1555 45.3857 76.4848 44.778 76.3141 44.1994C76.1433 43.6211 75.5379 43.291 74.9618 43.462Z" fill="white"/>
<path fill-rule="evenodd" clip-rule="evenodd" d="M36.4484 50.1044C36.6207 49.5482 36.3062 48.9579 35.7495 48.7928L18.058 43.5438C17.5119 43.3819 16.9373 43.6902 16.7684 44.2358C16.5962 44.7923 16.9107 45.382 17.4674 45.5474L22.4199 47.0167C22.3127 47.2613 22.2521 47.5314 22.2521 47.816C22.2521 48.9139 23.1393 49.8042 24.2336 49.8042C25.2198 49.8042 26.0353 49.0808 26.1873 48.1344L35.1591 50.7961C35.7049 50.9583 36.2795 50.65 36.4484 50.1044Z" fill="white"/>
</svg>
