<svg width="25" height="25" viewBox="0 0 25 25" fill="none" xmlns="http://www.w3.org/2000/svg">
<path fill-rule="evenodd" clip-rule="evenodd" d="M14.3371 14.337L22.0571 14.337C23.1599 14.337 23.9871 13.5098 23.9871 12.407C23.9871 11.3041 23.1599 10.477 22.0571 10.477L14.3371 10.477L14.3371 2.75701C14.3371 1.65416 13.51 0.827018 12.4071 0.827019C11.3043 0.827019 10.4771 1.65416 10.4771 2.75701L10.4771 10.477L2.75713 10.477C1.65428 10.477 0.82714 11.3041 0.82714 12.407C0.82714 13.5098 1.65428 14.337 2.75713 14.337L10.4771 14.337L10.4771 22.057C10.4771 23.1598 11.3043 23.9869 12.4071 23.9869C13.51 23.9869 14.3371 23.1598 14.3371 22.057L14.3371 14.337Z" fill="#E74186"/>
</svg>
