<svg width="149" height="34" viewBox="0 0 149 34" fill="none" xmlns="http://www.w3.org/2000/svg">
<g clip-path="url(#clip0)">
<path d="M146.014 30.9159C145.752 30.5022 145.602 30.239 145.527 30.1261C145.452 30.0133 145.265 29.9005 145.077 29.8252C145.489 29.75 145.789 29.5996 145.977 29.3739C146.164 29.1482 146.276 28.885 146.276 28.5089C146.276 28.1704 146.164 27.8319 145.939 27.6062C145.677 27.3429 145.302 27.2301 144.777 27.2301H142.641V31.781H143.541V29.9005H143.803C144.103 29.9005 144.29 30.0133 144.478 30.1637C144.627 30.3142 144.852 30.6151 145.077 31.0664L145.452 31.781H146.576L146.014 30.9159ZM144.253 29.2987H143.503V28.0575H144.365C144.665 28.0575 144.89 28.1328 145.04 28.208C145.19 28.3208 145.265 28.4713 145.265 28.6593C145.265 28.885 145.152 29.0354 145.002 29.1482C144.927 29.2235 144.627 29.2987 144.253 29.2987Z" fill="black"/>
<path d="M31.1817 26.2898C31.1817 27.4934 31.0692 28.2456 30.9193 28.5841C30.7694 28.9226 30.4321 29.1106 29.9449 29.1106C29.4577 29.1106 29.1204 28.9226 28.9705 28.5089C28.8205 28.1327 28.7081 27.2677 28.7081 25.9889V13.6527C28.7081 12.2235 28.8205 11.3584 28.9705 10.9823C29.1204 10.6062 29.4577 10.4558 29.9824 10.4558C30.4696 10.4558 30.8069 10.6438 30.9568 10.9823C31.1067 11.3584 31.1817 12.2611 31.1817 13.6527V26.2898ZM39.5392 15.6836C39.5392 13.7279 39.4268 12.2987 39.127 11.3208C38.8272 10.3805 38.3774 9.44027 37.6279 8.53761C36.9158 7.63496 35.8664 6.92035 34.5172 6.35619C33.168 5.79203 31.5564 5.49115 29.6825 5.49115C27.4339 5.49115 25.6349 5.94248 24.2108 6.76991C22.7866 7.67257 21.7747 8.80088 21.25 10.2301C20.7253 11.6593 20.4255 13.6527 20.4255 16.2102V23.2434C20.4255 25.5752 20.5754 27.3053 20.8752 28.4712C21.175 29.6372 21.6997 30.615 22.3743 31.4425C23.0864 32.2699 24.0608 32.8717 25.3726 33.2854C26.6468 33.6991 28.2209 33.8872 30.0573 33.8872C31.7063 33.8872 33.168 33.6239 34.4422 33.1726C35.7165 32.6836 36.7659 31.969 37.5529 30.9535C38.3774 29.9381 38.9021 28.885 39.127 27.719C39.3893 26.5907 39.5018 24.7478 39.5018 22.3031L39.5392 15.6836Z" fill="black"/>
<path d="M50.97 0H42.425V33.5111H50.97V0Z" fill="black"/>
<path d="M108.611 26.2898C108.611 27.4934 108.499 28.2456 108.349 28.5841C108.199 28.9226 107.862 29.1106 107.374 29.1106C106.887 29.1106 106.55 28.9226 106.4 28.5089C106.25 28.1327 106.138 27.2677 106.138 25.9889V13.6527C106.138 12.2235 106.25 11.3584 106.4 10.9823C106.55 10.6062 106.887 10.4558 107.412 10.4558C107.899 10.4558 108.236 10.6438 108.386 10.9823C108.536 11.3584 108.611 12.2611 108.611 13.6527V26.2898ZM116.931 15.6836C116.931 13.7279 116.819 12.2987 116.519 11.3208C116.219 10.3805 115.769 9.44027 115.02 8.53761C114.308 7.63496 113.258 6.92035 111.909 6.35619C110.56 5.79203 108.948 5.49115 107.075 5.49115C104.826 5.49115 103.027 5.94248 101.603 6.76991C100.179 7.67257 99.1667 8.80088 98.642 10.2301C98.1173 11.6593 97.8175 13.6527 97.8175 16.2102V23.2434C97.8175 25.5752 97.9674 27.3053 98.2672 28.4712C98.567 29.6372 99.0917 30.615 99.7663 31.4425C100.478 32.2699 101.453 32.8717 102.765 33.2854C104.076 33.6991 105.613 33.8872 107.449 33.8872C109.098 33.8872 110.56 33.6239 111.834 33.1726C113.108 32.6836 114.158 31.969 114.945 30.9535C115.769 29.9381 116.294 28.885 116.519 27.719C116.781 26.5907 116.894 24.7478 116.894 22.3031L116.931 15.6836Z" fill="black"/>
<path d="M18.2518 25.3871C18.2518 23.3938 17.877 21.8517 17.1274 20.7986C16.3779 19.7455 14.8038 18.6172 12.3677 17.4513C10.5313 16.5486 9.33201 15.8716 8.76984 15.3827C8.17019 14.8938 7.83289 14.48 7.72046 14.1039C7.60803 13.7278 7.53307 13.0884 7.53307 12.2234C7.53307 11.584 7.6455 11.1327 7.87037 10.8318C8.09524 10.5309 8.43254 10.3429 8.91975 10.3429C9.48192 10.3429 9.8567 10.4933 10.0066 10.8318C10.1565 11.1703 10.2315 11.9601 10.2315 13.2765V14.7433H17.6146V13.1261C17.6146 11.7345 17.5397 10.719 17.3898 10.0796C17.2399 9.40261 16.8276 8.72562 16.153 7.9734C15.4784 7.22119 14.4665 6.61942 13.2297 6.13048C11.9555 5.64154 10.4189 5.45349 8.61993 5.45349C6.82099 5.45349 5.17196 5.75438 3.78527 6.31854C2.39859 6.88269 1.42416 7.67252 0.861993 8.72562C0.299824 9.81632 0 11.4336 0 13.6526C0 15.1946 0.299824 16.511 0.824515 17.6769C1.34921 18.8053 2.84832 20.0464 5.28439 21.438C8.17019 23.0929 9.81922 24.0707 10.119 24.3716C10.4189 24.6725 10.5688 25.5 10.5688 26.8539C10.5688 27.7942 10.4563 28.4336 10.2315 28.7345C10.0066 29.0354 9.59436 29.1858 8.99471 29.1858C8.47002 29.1858 8.09524 28.9601 7.90785 28.5088C7.72046 28.0575 7.60802 27.1172 7.60802 25.6504V23.9203H0.224868V25.2367C0.224868 27.4933 0.524691 29.261 1.08686 30.3517C1.64903 31.48 2.69841 32.3827 4.19753 33.0221C5.69665 33.6991 7.49559 34 9.63183 34C11.5432 34 13.1922 33.6991 14.5414 33.0973C15.8907 32.4955 16.8651 31.6305 17.4272 30.4646C17.9894 29.2986 18.2518 27.6438 18.2518 25.3871Z" fill="black"/>
<path d="M86.8364 25.4248C86.8364 27.0796 86.724 28.0951 86.5741 28.5089C86.4242 28.9602 86.0869 29.1482 85.5247 29.1482C85.0375 29.1482 84.6627 28.9226 84.4753 28.5089C84.3254 28.0951 84.213 27.1549 84.213 25.6504V13.8783C84.213 12.3739 84.2879 11.396 84.4378 11.0199C84.5877 10.6438 84.925 10.4558 85.4497 10.4558C85.9744 10.4558 86.3492 10.6814 86.5366 11.1327C86.724 11.5841 86.8364 12.4867 86.8364 13.9159V25.4248ZM95.1565 13.5022C95.1565 11.4712 95.1191 10.1549 95.0441 9.51549C94.9317 8.87611 94.7068 8.23673 94.2571 7.63496C93.8073 6.95796 93.1702 6.50664 92.3457 6.13053C91.4837 5.79204 90.5093 5.60398 89.3849 5.60398C88.4105 5.60398 87.4735 5.79204 86.6116 6.20575C85.7496 6.58186 85 7.18363 84.3254 8.01106V0H75.9678V33.5111H83.7632L84.2879 31.4425C84.9625 32.3075 85.7496 32.9093 86.6116 33.3606C87.4735 33.8119 88.373 34 89.3474 34C90.6966 34 91.8959 33.6615 92.8704 32.9093C93.8448 32.1947 94.4819 31.3296 94.7443 30.3518C95.0066 29.3739 95.1565 27.8695 95.1565 25.8761V13.5022Z" fill="black"/>
<path d="M144.515 33.0221C143.578 33.0221 142.791 32.6836 142.079 32.0066C141.404 31.3296 141.067 30.5398 141.067 29.5619C141.067 28.6592 141.367 27.8694 142.041 27.1548C142.716 26.4778 143.503 26.1017 144.59 26.1017C145.077 26.1017 145.564 26.2146 146.089 26.5154C146.614 26.8163 147.063 27.1924 147.363 27.7566C147.701 28.2831 147.851 28.8849 147.851 29.5619C147.851 30.5022 147.513 31.292 146.839 32.0066C146.239 32.646 145.414 33.0221 144.515 33.0221ZM148.75 29.5619C148.75 28.4336 148.338 27.4181 147.513 26.5531C146.689 25.688 145.639 25.2743 144.365 25.2743C143.803 25.2743 143.203 25.4247 142.529 25.7632C141.854 26.0641 141.329 26.5907 140.88 27.2677C140.43 27.9446 140.205 28.7345 140.205 29.5243C140.205 30.6902 140.617 31.7057 141.479 32.5708C142.304 33.3982 143.316 33.8495 144.515 33.8495C145.677 33.8495 146.689 33.4358 147.513 32.5708C148.338 31.7433 148.75 30.7278 148.75 29.5619Z" fill="black"/>
<path d="M137.019 33.511L133.009 19.1814L136.307 6.0553H128.924C128.512 7.74778 127.912 10.9071 127.088 15.6084C126.975 14.8562 126.413 11.6593 125.251 6.0553H118.28L121.916 19.1814L118.28 33.511H125.251C125.926 30.5398 126.526 27.4181 127.088 24.146C127.5 26.7787 128.1 29.9004 128.924 33.511H137.019Z" fill="black"/>
<path d="M64.7244 15.7964H62.2509V13.8031C62.2509 12.261 62.3258 11.3208 62.4758 10.9447C62.5882 10.6062 62.963 10.4181 63.5626 10.4181C64.0498 10.4181 64.3497 10.6438 64.4996 11.0575C64.6495 11.4712 64.7244 12.3739 64.7244 13.8031V15.7964ZM73.0445 16.6615C73.0445 13.9911 72.7447 11.9225 72.1451 10.4557C71.5454 8.9889 70.4586 7.78536 68.922 6.92031C67.4228 6.01766 65.474 5.60394 63.1129 5.60394C61.2015 5.60394 59.4775 5.98005 58.0534 6.69465C56.5917 7.40925 55.5423 8.49996 54.8677 9.89155C54.1931 11.2831 53.8933 13.1637 53.8933 15.5708V23.5442C53.8933 25.6128 54.0432 27.1548 54.343 28.2079C54.6429 29.2986 55.1676 30.2765 55.9171 31.1416C56.6667 32.0442 57.7161 32.7212 59.0653 33.2101C60.4145 33.6991 61.9511 33.9624 63.7125 33.9624C65.549 33.9624 67.0481 33.6991 68.2474 33.1725C69.4467 32.6836 70.4586 31.8938 71.2456 30.8407C72.0326 29.7876 72.5199 28.8097 72.7447 27.9447C72.9696 27.042 73.0445 25.7256 73.0445 24.0331V22.0022H65.1367V25.6504C65.1367 27.0044 65.0243 27.907 64.8369 28.396C64.612 28.8849 64.1997 29.1106 63.5626 29.1106C63.0754 29.1106 62.7006 28.9225 62.5132 28.584C62.3258 28.2455 62.2134 27.4181 62.2134 26.177V20.2345H73.0071V16.6615H73.0445Z" fill="black"/>
</g>
<defs>
<clipPath id="clip0">
<rect width="148.75" height="34" fill="white"/>
</clipPath>
</defs>
</svg>
