<svg width="161" height="33" viewBox="0 0 161 33" fill="none" xmlns="http://www.w3.org/2000/svg">
<g clip-path="url(#clip0)">
<path d="M53.7378 27.028H39.8839C39.4177 27.028 39.0713 26.6685 39.0713 26.1891V24.4572C39.0582 24.0303 39.1912 23.8449 39.457 23.5116L50.4873 10.3899H39.6836C39.2174 10.3899 38.871 10.0304 38.871 9.55102V8.3246C38.871 7.85837 39.2174 7.48576 39.6836 7.48576H53.6704C54.1366 7.48576 54.483 7.84526 54.483 8.3246V10.0959C54.483 10.4161 54.3763 10.6819 54.1366 10.9759L43.0932 24.137H53.7509C54.2171 24.137 54.5635 24.4965 54.5635 24.9758V26.2023C54.5504 26.6685 54.204 27.028 53.7378 27.028ZM81.0336 27.3875C82.0335 27.3744 82.7656 27.1609 83.0446 26.8407C83.1382 26.7209 83.1906 26.588 83.1775 26.455C83.1644 26.3483 83.1644 26.3483 82.8985 25.0432L82.8854 25.017C82.833 24.6706 82.5915 24.5246 82.393 24.5246H82.3668C82.3668 24.5246 82.114 24.5115 81.8743 24.5115C81.1684 24.4853 80.5824 24.3785 80.5693 23.3262V1.11774C80.5693 0.74513 80.3558 0.372523 79.9308 0.357544H79.811L77.8786 0.863091C77.5454 0.902412 77.2121 1.14208 77.2252 1.58209V23.3749C77.2364 25.9626 78.5827 27.3875 81.0336 27.3875ZM120.144 27.028H118.412C117.946 27.028 117.6 26.6685 117.6 26.1891V12.8408C117.573 10.5771 116.907 9.94984 114.536 9.92362C111.859 9.92362 109.142 10.6164 108.236 10.8692V26.2023C108.236 26.6816 107.916 27.0411 107.463 27.0411H105.704C105.238 27.0411 104.892 26.6816 104.892 26.2023V11.2156C104.866 9.83 104.998 8.87134 106.916 8.23098C108.754 7.57751 112.284 7.03264 114.615 7.03264C119.051 7.03264 120.957 8.6841 120.957 12.5206V26.2023C120.944 26.6685 120.597 27.028 120.144 27.028ZM137.475 10.4704C136.837 10.2981 135.037 9.8843 133.013 9.8843C129.297 9.92362 127.739 10.9497 127.698 17.2915C127.737 24.2456 129.763 24.6182 133.053 24.6575V24.8036V24.6444C135.105 24.6444 136.863 24.2044 137.488 24.0321V10.4704H137.475ZM138.395 26.7752L138.194 26.8276C137.103 27.1066 135.597 27.5073 132.959 27.5073H132.946C125.687 27.4942 124.247 23.7382 124.247 17.2503C124.26 9.8169 126.552 7.04575 132.732 7.03264C134.918 7.03264 136.41 7.32661 137.488 7.59249L137.475 1.59707C137.462 1.33119 137.582 0.984797 138.194 0.878071L140.127 0.372523H140.233C140.673 0.38563 140.832 0.786323 140.832 1.13272V23.6464C140.859 25.0563 140.699 26.2678 138.395 26.7752ZM152.475 24.6032C147.719 24.577 147.479 22.0717 147.44 17.2765C147.479 12.4551 147.706 9.93673 152.475 9.91052C157.231 9.93673 157.484 12.4551 157.51 17.2765C157.471 22.0717 157.231 24.5901 152.475 24.6032ZM152.475 7.01954C144.63 7.03264 143.963 12.3222 143.95 17.2765C143.95 22.2178 144.617 27.4811 152.475 27.4942C160.32 27.4811 160.987 22.2328 161 17.2765C160.987 12.0956 160.322 7.03264 152.475 7.01954ZM98.0575 17.3833C97.2711 17.3964 93.4607 17.4507 91.9422 17.7821L91.8224 17.8083C90.1166 18.194 88.7723 18.5142 88.746 21.0981C88.746 24.3617 91.1839 24.6557 93.6742 24.6688V24.8148V24.6688C95.232 24.6688 96.7112 24.4422 98.0575 23.9891V17.3833ZM101.428 12.6274V22.9911C101.467 25.5619 100.816 26.3876 98.284 26.9868C97.1775 27.2265 95.4736 27.4923 93.6349 27.5054C90.9311 27.4923 85.2952 27.4923 85.2821 21.2572C85.269 16.3553 88.1338 15.4884 91.6089 14.9566C93.8876 14.584 96.2057 14.5297 97.3778 14.5297H98.0182V12.7584C98.005 11.5863 98.005 10.8804 96.9397 10.4666C96.2862 10.1876 95.3013 10.0528 93.8483 10.0528C91.4498 10.0528 89.2928 10.5996 87.8679 10.9722L87.3211 11.1051C87.2687 11.1182 87.2013 11.1313 87.1208 11.1444C86.868 11.1444 86.5872 10.9853 86.4954 10.652L86.4823 10.6258L86.1621 8.96121V8.86759C86.1621 8.48188 86.4411 8.24221 86.7089 8.1617C87.8548 7.72168 90.8918 7.0289 94.1685 7.0289C96.5539 7.0289 98.284 7.34908 99.4431 8.00067C101.441 9.07168 101.428 11.0433 101.428 12.6274ZM69.8835 24.0041C68.5372 24.4572 67.0599 24.6837 65.5002 24.6837V24.8298V24.6837C63.0099 24.6575 60.5721 24.3767 60.5721 21.1131C60.5852 18.5161 61.9314 18.209 63.6484 17.8233L63.7682 17.7971C65.2868 17.4638 69.0971 17.3982 69.8835 17.3982V24.0041ZM71.2691 8.00442C70.1101 7.35095 68.3781 7.03264 65.9945 7.03264C62.7178 7.03264 59.6939 7.72543 58.5349 8.16544C58.2821 8.24596 58.0013 8.48562 57.9882 8.87134V8.95185L58.3065 10.6164L58.3196 10.6557C58.4263 10.989 58.6922 11.1482 58.945 11.1482C59.0255 11.1482 59.091 11.1351 59.1453 11.1089L59.692 10.9759C61.1169 10.6164 63.2758 10.0566 65.6725 10.0566C67.1236 10.0566 68.1103 10.1895 68.7769 10.4704C69.8423 10.8842 69.8423 11.5901 69.8554 12.7622V14.5073H69.2019C68.0298 14.5073 65.7118 14.5597 63.4331 14.9342C59.956 15.4809 57.0782 16.3328 57.1063 21.2479C57.1063 27.483 62.7403 27.4961 65.459 27.4961C67.2977 27.4961 68.9885 27.2171 70.1082 26.9774C72.6397 26.3783 73.2782 25.5525 73.2519 22.9817V12.6274C73.2407 11.0433 73.2407 9.07168 71.2691 8.00442Z" fill="white"/>
<path d="M29.3068 12.7614C27.0281 9.89663 23.8581 7.12735 19.6883 4.62209L19.6752 4.60898C15.4922 2.15801 11.549 0.733116 7.99327 0.147056C5.78196 -0.225551 4.71657 0.199483 4.23724 0.493449C3.7579 0.772437 2.86477 1.50642 2.06525 3.65031C0.786407 7.10114 0.0393204 11.3103 0 16.2515V16.2647C0.0262136 21.2059 0.786407 25.43 2.06525 28.879C2.86477 31.0379 3.7579 31.7569 4.23724 32.049C4.71657 32.328 5.78196 32.768 7.99327 32.3954C11.5508 31.8093 15.4791 30.3713 19.6752 27.9203L19.6883 27.9072C23.8581 25.402 27.0281 22.6327 29.3068 19.7679C30.7186 17.9835 30.8927 16.8245 30.8927 16.2647C30.8927 15.7048 30.7317 14.5477 29.3068 12.7614Z" fill="white"/>
</g>
<defs>
<clipPath id="clip0">
<rect width="161" height="32.5404" fill="white"/>
</clipPath>
</defs>
</svg>
